<?xml version="1.0" standalone="no"?>
<!DOCTYPE svg PUBLIC "-//W3C//DTD SVG 20010904//EN"
 "http://www.w3.org/TR/2001/REC-SVG-20010904/DTD/svg10.dtd">
<svg version="1.0" xmlns="http://www.w3.org/2000/svg"
 width="749.000000pt" height="749.000000pt" viewBox="0 0 749.000000 749.000000"
 preserveAspectRatio="xMidYMid meet">
<metadata>
Created by potrace 1.14, written by Peter Selinger 2001-2017
</metadata>
<g transform="translate(0.000000,749.000000) scale(0.100000,-0.100000)"
fill="#000000" stroke="none">
<path d="M3748 7023 c-6 -9 -4 -40 5 -103 20 -129 17 -137 -14 -42 -17 50 -35
92 -40 92 -13 0 -11 -15 20 -110 23 -72 30 -84 47 -82 10 2 21 6 23 8 4 4 -14
154 -25 218 -4 23 -10 30 -16 19z"/>
<path d="M3547 6974 c-7 -7 142 -214 154 -214 20 0 12 14 -59 105 -4 6 -24 34
-46 63 -40 56 -40 55 -49 46z"/>
<path d="M3809 6978 c0 -2 -2 -47 -5 -100 -3 -65 -1 -98 5 -98 6 0 11 12 12
28 0 15 2 60 4 100 2 39 -1 72 -6 72 -5 0 -9 -1 -10 -2z"/>
<path d="M3969 6915 c-87 -136 -94 -148 -81 -153 7 -2 26 -15 41 -28 l29 -24
79 45 c43 25 84 49 92 53 8 5 17 14 19 20 5 17 -33 0 -124 -55 -39 -24 -75
-43 -78 -43 -4 0 27 27 68 61 76 61 92 77 84 85 -5 4 -88 -59 -138 -103 -50
-45 -30 -12 34 59 37 40 61 75 55 77 -7 2 -24 -10 -38 -26 -127 -145 -127
-145 -44 -11 30 49 53 94 50 100 -2 7 -24 -18 -48 -57z"/>
<path d="M3865 6958 c-8 -22 -35 -158 -35 -176 0 -36 19 7 34 78 9 41 19 83
22 93 6 19 -14 24 -21 5z"/>
<path d="M3637 6953 c-7 -11 77 -176 92 -181 15 -5 4 23 -44 113 -43 81 -41
79 -48 68z"/>
<path d="M3903 6903 c-41 -94 -54 -135 -41 -131 10 4 35 57 79 166 5 14 5 22
-2 22 -5 0 -22 -26 -36 -57z"/>
<path d="M3595 6819 c86 -87 86 -88 -57 14 -46 32 -52 35 -56 24 -3 -10 157
-127 173 -127 5 0 17 5 25 10 12 8 1 24 -60 85 -41 41 -81 75 -90 75 -8 0 21
-37 65 -81z"/>
<path d="M3366 6851 c-7 -11 259 -144 276 -138 7 2 -51 36 -129 75 -78 40
-144 68 -147 63z"/>
<path d="M4208 6804 c-3 -3 -57 -25 -119 -49 -81 -30 -114 -47 -113 -58 1 -13
-5 -15 -30 -10 -17 3 -33 6 -36 5 -47 -1 -63 -6 -88 -32 l-30 -30 -31 26 c-20
16 -50 29 -83 34 -29 4 -78 17 -108 28 -103 37 -180 59 -185 52 -5 -9 20 -19
123 -51 39 -13 72 -26 72 -29 0 -4 -28 -1 -62 6 -97 20 -168 27 -168 17 0 -5
41 -15 90 -22 50 -8 93 -18 96 -22 3 -5 -29 -9 -70 -9 -44 0 -76 -4 -76 -10 0
-5 15 -10 33 -11 l32 -1 -35 -9 c-19 -5 -62 -12 -95 -15 -33 -4 -78 -16 -100
-27 -22 -11 -48 -21 -59 -21 -14 -1 -33 -33 -78 -131 -33 -71 -74 -161 -92
-200 -18 -38 -56 -122 -85 -186 l-52 -116 -81 -38 c-608 -292 -1069 -855
-1238 -1510 -15 -60 -31 -126 -34 -145 -3 -19 -9 -57 -14 -85 -5 -27 -10 -57
-10 -65 0 -8 -4 -42 -8 -75 -16 -131 -9 -389 16 -560 114 -783 643 -1473 1372
-1789 227 -98 471 -160 718 -183 173 -16 474 -5 600 23 14 3 37 7 52 9 103 15
330 84 465 141 767 326 1305 1040 1404 1864 22 181 17 462 -11 635 -16 99 -20
116 -41 205 -156 644 -614 1218 -1208 1515 l-112 56 -49 102 c-41 88 -46 104
-33 114 8 6 32 27 52 45 20 18 89 80 154 136 l117 103 -21 30 c-11 16 -24 29
-29 29 -8 0 -186 -135 -288 -218 l-42 -34 -55 118 c-81 177 -98 207 -117 210
-10 1 -30 11 -45 22 -16 11 -60 25 -104 31 -42 7 -89 16 -105 21 l-29 8 30 1
c20 1 26 4 17 10 -7 4 -40 7 -72 6 -91 -3 -90 10 2 24 100 15 120 20 113 30
-2 5 -37 3 -77 -4 -188 -33 -190 -29 -16 36 65 24 118 47 118 52 0 8 -34 10
-42 1z m-482 -150 c19 -9 39 -25 44 -34 7 -13 15 -556 10 -671 0 -4 -17 10
-38 31 -42 42 -89 59 -179 64 -61 3 -68 1 -313 -62 -85 -22 -174 -43 -197 -46
l-42 -5 38 107 c22 59 52 143 69 187 16 44 51 139 77 210 26 72 52 135 58 141
7 7 44 14 82 17 42 3 113 20 175 40 118 40 166 45 216 21z m354 -18 c81 -23
170 -41 237 -45 16 -1 24 -21 144 -341 124 -334 118 -312 87 -306 -13 2 -56 7
-94 11 -38 5 -98 16 -134 27 -171 50 -245 66 -298 64 -69 -3 -163 -43 -187
-80 -10 -14 -21 -26 -25 -26 -10 0 -9 640 1 667 4 12 18 32 30 44 19 19 29 21
88 16 36 -3 104 -17 151 -31z m331 -138 c9 -24 69 -171 133 -327 64 -156 116
-286 116 -289 0 -11 -43 35 -56 59 -13 26 -175 454 -215 569 -22 63 -4 52 22
-12z m-1219 -5 c-11 -26 -41 -106 -67 -178 -25 -71 -53 -146 -61 -165 -13 -33
-69 -186 -80 -220 -6 -16 -53 -55 -59 -48 -4 4 214 537 255 627 28 58 37 46
12 -16z m1033 -517 c125 -36 154 -42 220 -52 143 -20 160 -24 184 -49 l26 -25
-80 5 c-100 6 -176 14 -184 19 -3 2 -22 7 -41 10 -19 3 -46 8 -60 11 -14 3
-38 8 -55 10 -16 3 -38 8 -47 11 -37 11 -66 15 -127 19 -102 6 -179 -33 -201
-101 -11 -33 -12 -34 -71 -34 -53 0 -59 2 -59 20 0 40 -28 87 -65 110 -49 30
-160 31 -255 1 -109 -33 -222 -59 -285 -66 -111 -11 -175 -13 -180 -5 -7 12
65 39 124 46 30 3 118 23 195 45 78 22 150 42 161 45 49 14 177 16 221 4 50
-14 104 -62 124 -110 15 -36 35 -39 44 -7 20 75 146 141 251 131 22 -3 94 -20
160 -38z m-1410 -132 c-9 -21 -14 -48 -11 -59 5 -20 12 -20 432 -20 402 0 427
-1 439 -18 11 -15 27 -18 101 -19 129 0 134 0 134 17 0 8 5 16 10 16 6 1 16 2
23 3 33 5 22 -10 -38 -56 -41 -31 -64 -55 -61 -63 3 -9 -13 -22 -48 -38 -64
-30 -122 -85 -131 -126 -4 -19 -24 -45 -56 -72 -52 -43 -58 -59 -34 -79 13
-11 22 -8 53 17 49 39 70 50 111 56 45 8 95 44 141 106 28 37 40 46 44 35 7
-19 17 -14 102 62 144 128 175 154 182 155 4 1 129 3 277 4 149 1 276 3 283 4
14 1 17 52 3 66 -5 6 -12 21 -16 34 -7 23 -6 23 51 -9 66 -37 275 -173 296
-192 7 -7 31 -28 53 -47 347 -293 577 -658 689 -1093 14 -54 23 -104 20 -111
-7 -19 -97 -40 -136 -32 -18 4 -60 18 -93 31 -33 12 -76 25 -95 27 -20 2 -49
11 -66 20 -26 13 -46 14 -115 7 -46 -4 -93 -6 -104 -4 -97 19 -137 24 -146 19
-5 -4 -20 0 -32 7 -26 17 -91 34 -162 44 -54 7 -88 21 -81 33 3 4 -13 18 -35
32 -22 13 -52 33 -66 43 -22 17 -45 20 -172 21 -80 1 -166 7 -191 14 -25 6
-54 13 -65 15 -32 6 -55 17 -55 28 0 5 -14 21 -31 36 -25 20 -44 27 -83 28
-69 2 -138 14 -153 26 -11 9 -116 6 -153 -5 -100 -28 -185 -26 -305 9 -75 21
-132 8 -178 -42 -23 -24 -35 -46 -33 -57 4 -16 0 -18 -20 -13 -15 4 -24 2 -24
-5 0 -7 -3 -10 -6 -6 -3 3 -18 1 -33 -5 -27 -11 -142 -12 -221 -2 -53 6 -100
-9 -100 -31 0 -9 4 -14 9 -11 13 8 -31 -76 -50 -95 -9 -9 -28 -19 -43 -23 -26
-6 -36 -25 -13 -27 6 0 3 -4 -8 -8 -11 -5 -33 -4 -48 2 -33 11 -108 3 -136
-15 -36 -22 -36 -16 4 157 9 39 18 82 19 97 2 16 10 36 18 45 9 10 25 37 37
61 12 23 26 42 31 42 18 0 68 58 74 87 11 47 36 38 35 -11 -1 -23 1 -55 5 -72
5 -21 0 -51 -17 -97 -23 -62 -22 -94 0 -64 26 35 112 225 109 242 -1 10 3 39
11 64 16 55 16 64 1 55 -7 -4 -10 -4 -6 1 4 4 3 17 -3 27 -8 15 -8 23 2 32 9
8 10 8 5 -1 -4 -7 2 -21 14 -33 11 -11 20 -31 20 -44 0 -14 5 -37 11 -53 10
-27 17 -57 25 -118 2 -16 -1 -49 -7 -72 -13 -48 -10 -66 9 -54 7 4 17 39 23
77 5 38 14 95 19 127 6 36 5 68 0 83 -6 14 -12 40 -14 57 -2 18 -8 41 -12 52
-6 16 -5 18 7 8 16 -16 33 -17 23 -2 -4 7 -2 10 5 8 7 -3 24 -27 38 -54 15
-28 33 -61 40 -75 8 -14 17 -33 20 -42 3 -10 9 -18 13 -18 8 0 42 -130 39
-147 -1 -5 0 -19 1 -33 2 -22 3 -21 12 10 15 52 18 138 7 195 -6 28 -12 69
-14 93 -2 29 -15 59 -39 92 -20 28 -36 54 -36 59 0 5 -13 21 -30 34 -16 14
-30 30 -30 35 0 4 -15 15 -32 24 -32 15 -32 15 -10 27 21 11 120 22 220 25 23
0 42 4 42 8 0 5 19 8 43 8 42 1 42 1 16 15 -71 39 -272 49 -349 17 -26 -10
-40 -7 -40 7 0 11 90 54 160 76 43 14 50 20 35 25 -16 6 -12 8 18 14 48 9 48
25 0 20 -115 -10 -199 -31 -265 -65 -21 -11 -38 -18 -38 -17 0 2 7 25 15 51 8
27 17 77 20 110 l6 62 -35 -70 c-45 -91 -67 -112 -101 -97 -14 7 -30 23 -35
37 -8 22 -26 30 -52 26 -5 0 -8 4 -8 9 0 6 -5 10 -11 10 -6 0 -9 -7 -5 -15 7
-19 8 -19 -44 6 -25 12 -63 22 -86 23 -23 0 -45 4 -49 8 -4 4 23 29 59 55 68
49 259 163 264 158 2 -2 -4 -20 -13 -41z m-393 -198 c-130 -95 -336 -330 -450
-512 -144 -231 -262 -543 -288 -767 -4 -29 -8 -55 -10 -58 -5 -10 -18 -194
-18 -269 0 -78 13 -290 18 -299 2 -3 7 -31 11 -61 11 -85 59 -264 100 -375
108 -288 268 -537 482 -752 327 -328 720 -527 1198 -608 160 -27 500 -27 640
-1 11 2 40 7 65 11 82 14 95 16 170 36 164 44 304 99 460 180 63 33 117 63
120 67 3 4 17 13 32 21 67 34 252 184 353 286 330 330 528 720 599 1178 25
162 26 473 2 602 -2 11 -7 40 -11 65 -19 120 -85 344 -137 460 -135 304 -292
519 -554 759 l-69 63 62 -46 c76 -57 187 -159 274 -251 311 -329 521 -753 593
-1195 25 -155 28 -188 30 -340 4 -207 -11 -357 -58 -565 -50 -226 -164 -496
-299 -712 -161 -254 -401 -501 -652 -670 -122 -82 -163 -105 -280 -163 -178
-86 -299 -131 -470 -171 -99 -23 -100 -23 -165 -34 -25 -4 -53 -9 -63 -11
-133 -24 -497 -24 -642 1 -207 37 -336 70 -475 122 -121 46 -308 136 -383 185
-32 21 -61 38 -64 38 -3 0 -37 23 -77 52 -422 306 -712 699 -870 1182 -247
754 -72 1615 450 2210 123 140 368 365 398 366 6 0 -5 -11 -22 -24z m102 -41
c36 -11 54 -20 46 -25 -14 -9 25 -40 51 -40 19 0 42 -24 33 -33 -4 -3 -15 -2
-25 4 -10 5 -29 7 -42 4 -12 -4 -35 -1 -50 4 -21 8 -26 8 -21 -1 5 -8 -3 -9
-30 -5 -30 5 -37 3 -32 -8 3 -10 -2 -13 -19 -12 -27 2 -185 -82 -185 -98 0 -6
-13 -19 -30 -28 -16 -10 -30 -23 -30 -28 0 -6 6 -7 13 -3 6 4 3 -2 -7 -14 -26
-30 1 -30 40 0 25 19 27 20 14 3 -15 -19 -14 -19 12 -3 20 13 28 14 31 5 3 -8
11 -4 22 11 9 13 23 21 30 18 7 -2 30 4 51 15 21 10 44 19 52 19 7 0 23 6 35
12 12 7 40 14 62 15 22 2 45 3 50 4 15 1 99 -13 104 -17 2 -2 -13 -4 -35 -5
-21 0 -48 -2 -59 -5 -11 -2 -30 -5 -42 -6 -25 -3 -100 -65 -105 -87 -2 -8 -12
-24 -23 -35 -23 -24 -65 -105 -65 -125 0 -8 -6 -22 -14 -30 -21 -25 -52 -179
-47 -238 2 -19 31 -3 31 16 0 10 3 21 7 25 4 4 8 18 9 31 1 29 24 85 34 85 4
0 11 11 14 25 4 14 11 25 16 25 6 0 10 6 10 13 0 16 55 77 69 77 6 0 11 4 11
10 0 17 74 88 100 95 20 6 15 -3 -31 -51 -74 -78 -117 -127 -119 -136 0 -4
-17 -36 -36 -70 -48 -84 -56 -104 -61 -162 -2 -27 -4 -52 -5 -55 0 -3 0 -17 1
-31 2 -23 3 -24 15 -7 7 9 21 17 30 17 10 0 16 6 13 13 -2 6 9 41 25 75 15 35
28 72 28 82 0 10 7 23 15 30 10 9 15 9 15 1 0 -27 18 -8 25 27 7 34 8 35 15
12 l6 -25 7 28 c4 15 14 27 23 27 8 0 13 4 10 9 -3 5 1 14 9 21 8 7 15 9 15 4
1 -18 40 42 41 61 0 12 3 15 6 7 5 -12 -12 -68 -37 -127 -5 -11 -12 -30 -15
-42 -4 -13 -11 -23 -16 -23 -5 0 -9 -10 -9 -23 0 -13 -5 -28 -12 -35 -7 -7 -9
-12 -6 -12 4 0 1 -21 -7 -47 -7 -27 -16 -68 -20 -93 -4 -25 -15 -60 -26 -78
-12 -20 -17 -42 -13 -57 3 -13 0 -34 -7 -46 -7 -13 -12 -41 -12 -62 0 -35 -2
-38 -22 -33 -14 4 -32 -2 -48 -14 -22 -17 -36 -19 -104 -15 -43 3 -91 9 -108
13 -45 12 -134 5 -173 -14 -23 -11 -47 -14 -76 -10 -55 8 -132 10 -181 5 -37
-4 -40 -2 -40 21 -1 32 56 228 96 327 72 183 195 393 315 539 118 145 301 319
318 305 6 -5 37 -17 70 -26z m1221 -143 c-11 -10 -33 -24 -48 -30 l-29 -12 22
30 c26 37 52 52 65 39 6 -6 2 -16 -10 -27z m-1060 -605 c-8 -20 -20 -37 -25
-37 -14 0 -13 3 13 56 25 53 36 37 12 -19z m782 -70 c-1 -5 9 -11 22 -13 21
-4 22 -3 10 13 -13 17 -12 17 4 4 15 -12 20 -12 27 -2 5 9 10 10 14 2 4 -6 1
-11 -6 -11 -8 0 -5 -7 7 -19 14 -13 40 -20 88 -24 37 -2 67 -3 67 -1 0 2 -12
10 -27 18 l-28 15 45 0 c105 2 174 9 178 20 2 6 8 11 13 11 6 0 7 -5 3 -12 -5
-7 -2 -9 7 -6 10 4 14 -2 14 -18 0 -18 -7 -25 -28 -30 -24 -5 -26 -8 -15 -22
11 -13 10 -15 -4 -9 -24 9 -23 2 9 -52 34 -58 73 -102 73 -81 0 8 -7 24 -15
34 -31 41 -12 71 34 54 18 -7 22 -5 18 6 -4 10 -1 13 10 9 8 -3 18 -1 22 5 5
8 17 9 42 2 20 -6 49 -12 65 -14 88 -11 125 -19 114 -26 -8 -5 -7 -9 4 -13 9
-4 16 -11 16 -17 0 -6 -4 -8 -10 -5 -6 4 -10 -14 -10 -47 0 -29 -4 -58 -8 -64
-5 -8 -38 4 -107 37 -55 27 -104 48 -108 46 -5 -1 44 -29 107 -61 64 -32 114
-61 111 -66 -4 -7 -58 13 -108 41 -9 5 -42 20 -73 34 -59 26 -66 17 -9 -11 30
-14 47 -34 30 -34 -19 0 -116 61 -160 101 -29 27 -55 49 -58 49 -7 0 -3 -22 7
-39 7 -11 5 -13 -8 -8 -14 6 -16 3 -10 -16 3 -12 3 -19 -1 -15 -5 4 -14 3 -22
-3 -9 -9 -13 -8 -13 0 0 6 -5 11 -10 11 -7 0 -7 -6 0 -19 22 -43 3 -42 -46 1
-22 19 -39 28 -41 22 -6 -19 -37 -5 -51 24 -11 23 -10 29 2 36 11 8 2 18 -40
48 -30 21 -59 38 -63 38 -5 0 -14 7 -21 15 -14 17 -34 10 -23 -8 5 -8 2 -8 -9
0 -18 16 -32 5 -17 -14 9 -10 8 -13 -4 -13 -20 0 -16 23 8 50 16 18 14 25 -7
21 -5 0 -17 8 -27 18 -19 19 -19 20 -1 18 10 -1 18 -5 17 -10z m-24 -76 c-2
-3 -18 10 -36 29 l-32 34 36 -30 c20 -16 34 -31 32 -33z m-80 -30 c4 -1 7 -7
7 -14 0 -8 11 -24 24 -36 29 -27 39 -60 22 -67 -7 -3 -33 3 -57 12 -24 9 -60
18 -79 19 -19 1 -48 5 -63 10 -17 4 -33 3 -39 -3 -12 -12 -58 4 -58 20 0 5 -5
6 -12 2 -6 -4 -8 -3 -5 3 4 6 -2 13 -13 16 -11 3 -20 0 -20 -6 0 -7 -5 -4 -11
6 -5 9 -20 17 -32 18 -12 0 -16 3 -9 6 7 3 35 -2 62 -11 58 -19 74 -20 43 -3
-19 11 -15 12 35 13 31 1 74 5 96 10 32 8 67 9 109 5z m228 -28 c13 -16 12
-17 -3 -4 -10 7 -18 15 -18 17 0 8 8 3 21 -13z m802 -37 c8 3 18 1 22 -5 3 -7
0 -8 -9 -5 -32 12 -15 -5 25 -26 23 -11 48 -19 55 -16 9 3 11 0 7 -11 -4 -9 1
-21 13 -30 16 -12 15 -13 -16 -7 -43 9 -80 32 -80 50 0 17 -17 18 -23 2 -2 -8
21 -27 54 -46 32 -18 62 -38 65 -44 4 -7 -12 0 -37 14 -24 14 -55 29 -69 33
l-25 7 23 -17 c24 -18 30 -40 8 -32 -19 7 -28 -17 -13 -33 9 -10 9 -11 -2 -5
-11 6 -13 4 -7 -10 5 -14 4 -16 -7 -7 -11 10 -39 18 -69 21 -16 2 -30 42 -19
55 6 8 9 20 6 28 -3 7 1 22 10 33 12 17 16 18 24 5 6 -8 13 -11 18 -7 4 5 1
12 -6 16 -24 15 -3 33 22 20 l22 -12 -20 24 c-12 14 -13 19 -4 11 9 -7 23 -10
32 -6z m58 -3 c13 -17 13 -17 -6 -3 -11 8 -22 16 -24 17 -2 2 0 3 6 3 6 0 17
-8 24 -17z m-1489 -68 c-7 -14 -11 -14 -33 4 -13 11 -19 20 -12 21 6 0 15 -4
18 -10 3 -5 11 -10 17 -10 6 0 5 7 -3 17 -10 11 -10 14 -1 9 7 -4 12 -2 13 6
1 7 3 5 6 -4 2 -10 0 -25 -5 -33z m289 23 c21 -11 36 -25 33 -29 -3 -5 3 -6
12 -2 12 4 15 3 10 -5 -4 -8 2 -16 17 -21 39 -15 40 -28 2 -25 -19 1 -48 12
-66 24 -22 16 -34 19 -42 11 -8 -8 -19 -4 -43 14 -18 14 -39 25 -48 25 -8 0
-18 5 -22 11 -5 9 3 10 29 5 21 -4 38 -2 42 4 10 16 34 12 76 -12z m79 -3 c10
-12 9 -15 -8 -15 -11 0 -25 7 -32 15 -10 12 -9 15 8 15 11 0 25 -7 32 -15z
m174 -2 c5 -15 32 -37 93 -76 9 -5 13 -3 13 8 0 8 -5 14 -12 13 -7 -2 -12 2
-13 7 0 6 -3 15 -7 20 -4 6 -2 17 4 25 8 13 9 12 5 -2 -3 -9 3 -24 14 -34 20
-18 25 -39 11 -48 -5 -3 -33 11 -63 31 -64 43 -80 58 -72 67 11 11 22 6 27
-11z m-89 -23 c3 -5 -4 -6 -15 -3 -11 3 -22 9 -25 13 -3 5 4 6 15 3 11 -3 22
-9 25 -13z m-243 -22 c36 -25 30 -36 -6 -12 -15 9 -29 14 -32 12 -2 -3 7 -13
20 -22 15 -9 23 -22 20 -30 -5 -12 -12 -12 -51 1 -25 9 -48 12 -52 7 -3 -5
-21 -10 -39 -10 -20 -1 -39 -10 -51 -25 -20 -24 -55 -21 -45 5 3 8 12 12 20 9
8 -3 14 0 14 6 0 6 -6 11 -12 11 -9 0 -8 4 2 10 8 5 20 10 25 10 6 0 3 -5 -5
-10 -8 -5 -10 -10 -4 -10 5 0 21 10 33 21 17 16 25 19 31 10 10 -17 16 -15 40
9 12 12 18 26 14 32 -11 17 45 0 78 -24z m-242 -20 c0 -5 -11 -1 -25 8 -14 9
-25 18 -25 20 0 2 11 -2 25 -8 14 -6 25 -15 25 -20z m581 15 c13 -16 12 -17
-3 -4 -10 7 -18 15 -18 17 0 8 8 3 21 -13z m-601 -28 c0 -10 -16 -4 -40 16
l-25 20 33 -16 c17 -8 32 -18 32 -20z m890 -5 c12 -8 11 -10 -7 -10 -13 0 -23
5 -23 10 0 13 11 13 30 0z m-1082 -16 c33 -16 44 -28 17 -18 -9 4 -28 1 -43
-4 -36 -15 -123 -21 -115 -9 6 10 82 46 99 47 6 0 25 -7 42 -16z m58 -5 c19
-22 19 -22 -1 -11 -11 6 -27 16 -35 22 -13 8 -13 10 1 10 9 0 24 -10 35 -21z
m69 3 c-3 -3 -11 0 -18 7 -9 10 -8 11 6 5 10 -3 15 -9 12 -12z m-386 -11 c21
-13 5 -29 -24 -23 -25 4 -31 13 -18 25 9 9 25 8 42 -2z m361 5 c0 -3 -4 -8
-10 -11 -5 -3 -10 -1 -10 4 0 6 5 11 10 11 6 0 10 -2 10 -4z m891 -14 c52 -1
118 -1 147 -2 28 0 52 -4 52 -10 0 -5 -8 -7 -17 -3 -25 9 -10 -6 34 -33 21
-13 32 -24 25 -24 -7 0 -10 -5 -6 -11 4 -8 0 -8 -15 0 -24 13 -28 23 -6 15 33
-13 13 8 -22 23 -43 18 -148 29 -123 13 8 -5 24 -10 34 -10 25 0 114 -52 99
-57 -7 -3 -21 1 -32 6 -28 15 -34 -2 -10 -27 22 -24 15 -30 -10 -8 -17 15
-134 26 -147 13 -4 -4 5 -7 19 -7 35 0 34 -11 -4 -32 -22 -13 -36 -15 -48 -8
-10 5 -21 7 -24 3 -4 -3 -19 0 -35 6 -16 7 -42 13 -58 15 -16 2 -31 4 -33 5
-2 0 4 12 12 25 12 18 13 26 4 36 -10 10 -8 10 9 2 12 -6 24 -8 28 -5 3 3 6 1
6 -7 0 -10 3 -10 15 0 10 8 32 10 68 6 59 -8 157 2 157 15 0 4 -10 6 -22 3
-48 -11 -115 -12 -129 -3 -10 7 -6 8 14 5 15 -3 25 -1 22 5 -4 5 -17 9 -30 9
-13 0 -35 4 -49 10 -14 5 -26 6 -26 1 0 -5 -22 -2 -50 7 -27 10 -50 20 -50 24
0 10 42 14 76 7 17 -3 74 -7 125 -7z m-608 -17 c32 -8 67 -15 77 -15 11 0 19
-5 18 -12 -2 -6 6 -13 17 -15 54 -10 65 -14 59 -24 -4 -8 1 -9 17 -5 21 6 21
5 6 -4 -9 -6 -26 -9 -36 -5 -11 3 -22 2 -25 -3 -6 -11 26 -22 64 -22 14 0 32
-5 40 -10 11 -8 7 -10 -17 -8 -17 1 -38 -4 -47 -11 -8 -7 -20 -10 -26 -6 -5 3
-10 -1 -10 -10 0 -11 -6 -14 -25 -9 -37 9 -30 -9 13 -34 30 -18 33 -22 15 -22
-12 0 -33 4 -47 10 -15 5 -28 6 -31 0 -3 -5 -15 -7 -27 -5 -12 3 -25 0 -28 -6
-5 -6 -16 -6 -35 1 -20 7 -30 8 -35 0 -3 -6 -28 -8 -58 -6 -29 3 -50 1 -47 -4
3 -5 -8 -4 -25 1 -16 6 -30 17 -30 23 0 7 -11 19 -25 26 -14 7 -32 24 -40 37
l-15 23 32 -20 c35 -21 68 -26 68 -10 0 6 9 10 20 10 25 0 25 8 3 27 -11 9 -6
8 11 -2 20 -12 31 -14 36 -6 3 7 14 9 23 5 35 -13 16 23 -23 45 -22 12 -38 27
-34 32 3 5 9 7 14 4 5 -3 21 6 37 20 33 29 41 30 116 10z m1328 -2 c13 -16 12
-17 -3 -4 -17 13 -22 21 -14 21 2 0 10 -8 17 -17z m-2537 -9 c5 -14 -3 -15
-75 -11 -55 4 -79 3 -72 -4 6 -6 94 -12 204 -15 107 -3 217 -9 244 -14 33 -5
51 -5 54 2 2 7 6 7 10 -1 10 -16 109 -32 149 -25 35 7 58 -9 44 -30 -3 -6 -7
-24 -9 -40 -5 -45 -15 -49 -75 -36 -70 16 -90 18 -176 24 -40 3 -77 8 -82 11
-6 3 -10 2 -10 -4 0 -5 7 -14 16 -19 12 -6 8 -9 -15 -9 -17 0 -31 3 -31 6 0 3
-37 6 -82 7 -87 1 -152 10 -180 25 -9 5 -23 9 -30 9 -27 -1 25 -29 65 -35 23
-4 47 -11 52 -15 12 -9 184 -19 190 -11 4 7 118 5 195 -4 30 -4 66 -8 80 -9
14 -1 36 -6 48 -10 20 -7 22 -12 16 -34 -4 -15 -8 -39 -8 -55 -1 -24 -4 -27
-26 -22 -58 12 -70 13 -70 5 0 -4 20 -16 45 -26 25 -9 44 -19 42 -21 -3 -2
-17 1 -33 7 -16 7 -53 16 -81 21 -29 6 -65 16 -80 24 -34 18 -54 7 -22 -12 17
-10 18 -13 4 -8 -51 18 -72 21 -99 16 l-29 -6 27 -14 c30 -16 29 -36 -1 -35
-18 0 -19 -2 -10 -18 6 -9 18 -19 27 -22 8 -2 3 -4 -11 -5 -14 0 -34 6 -45 14
-26 19 -40 19 -23 -1 11 -14 9 -15 -19 -11 -18 3 -30 1 -26 -4 4 -8 -4 -11
-26 -11 -3 0 -16 3 -29 7 -16 5 -21 4 -17 -4 5 -8 -7 -9 -41 -6 -148 15 -140
15 -119 0 10 -8 23 -12 29 -8 6 3 7 1 3 -5 -4 -8 -17 -7 -41 4 -19 8 -43 14
-53 14 -17 0 -18 8 -15 108 2 59 6 116 8 127 2 11 4 30 4 42 1 18 6 21 36 18
43 -4 46 9 5 24 -24 8 -30 16 -30 40 0 18 7 34 18 40 14 9 15 12 3 20 -18 12
7 16 100 19 53 2 68 -1 73 -14z m1575 -40 c1 -6 -5 -16 -12 -22 -10 -9 -28 -4
-73 17 l-59 28 45 15 c43 14 46 14 72 -6 15 -12 27 -26 27 -32z m30 40 c13
-13 -10 -12 -35 2 l-29 16 30 -7 c16 -4 32 -9 34 -11z m-1274 -15 c5 -5 -5 -4
-23 2 -17 6 -32 13 -32 16 0 7 43 -8 55 -18z m475 4 c0 -14 -9 -14 -110 -3
-25 3 29 15 71 16 28 1 39 -3 39 -13z m1506 -11 c-4 -3 -14 2 -24 12 -16 18
-16 18 6 6 13 -6 21 -14 18 -18z m-1381 -11 l30 -9 -35 -1 c-48 -1 -110 10
-110 20 0 9 72 3 115 -10z m2295 -1 c8 -5 11 -10 5 -10 -5 0 -17 5 -25 10 -8
5 -10 10 -5 10 6 0 17 -5 25 -10z m-2472 -27 c59 -43 61 -48 5 -17 -29 16 -53
32 -53 37 0 12 10 8 48 -20z m2962 7 c0 -5 9 -6 20 -3 12 3 20 0 20 -6 0 -7 4
-10 9 -7 16 10 40 -5 38 -24 -1 -21 -31 -19 -57 5 -9 8 -21 15 -27 15 -5 0
-18 9 -27 19 -17 19 -17 19 3 14 12 -3 21 -9 21 -13z m-3010 -25 c0 -7 14 -18
30 -25 24 -10 28 -15 19 -26 -9 -11 -8 -14 2 -14 10 0 11 -2 2 -8 -8 -5 -9
-13 -3 -22 17 -26 11 -30 -50 -27 -55 2 -59 4 -53 22 3 11 7 41 8 66 2 57 11
75 31 58 8 -6 14 -17 14 -24z m114 13 c27 -25 -1 -24 -34 2 -23 17 -23 19 -5
18 11 -1 29 -10 39 -20z m791 -6 c-3 -3 -11 0 -18 7 -9 10 -8 11 6 5 10 -3 15
-9 12 -12z m765 2 c30 -2 109 -6 175 -8 133 -4 141 -7 315 -111 41 -25 99 -56
128 -70 55 -25 67 -38 29 -31 -25 4 -193 91 -218 113 -18 15 -29 17 -29 3 0
-5 25 -24 55 -41 65 -36 75 -48 46 -56 -11 -3 -18 -9 -15 -14 7 -12 -7 -11
-26 1 -12 8 -12 10 5 10 18 0 18 2 -5 21 l-25 21 27 -16 c54 -32 52 -15 -2 19
-59 37 -80 44 -60 20 11 -13 8 -13 -19 -4 -52 18 -59 3 -8 -20 26 -12 47 -24
47 -26 0 -8 -106 27 -199 65 -87 36 -120 42 -106 20 3 -5 -8 -4 -25 1 -37 14
-39 21 -2 14 15 -3 5 3 -23 15 -60 24 -65 25 -39 5 14 -11 15 -14 4 -15 -19 0
-45 16 -45 29 0 5 -12 19 -27 31 -20 15 -28 17 -28 8 0 -8 5 -19 12 -26 9 -9
8 -12 -5 -12 -9 0 -17 6 -17 14 0 28 -68 28 -91 0 -9 -12 -4 -14 34 -14 25 0
49 -4 52 -10 3 -5 12 -10 18 -10 19 0 209 -101 203 -108 -3 -3 -16 -1 -29 5
-12 6 -49 16 -82 23 -79 15 -85 16 -115 28 -30 11 -56 39 -46 49 4 4 -15 12
-41 19 -41 11 -50 10 -65 -3 -10 -9 -18 -22 -18 -29 0 -7 -8 -10 -20 -7 -11 3
-20 0 -20 -5 0 -7 -18 -3 -46 8 -59 26 -76 25 -42 -1 21 -16 25 -23 16 -33
-11 -12 -28 -8 -157 41 l-23 9 26 17 c19 13 31 15 45 8 12 -7 21 -7 28 0 6 6
25 7 51 0 42 -9 60 -2 47 19 -3 6 3 10 14 10 11 0 22 -4 26 -10 3 -5 12 -7 20
-4 8 4 12 10 9 15 -7 13 40 11 53 -2 7 -7 14 -6 24 4 8 7 20 12 28 9 8 -3 11
0 7 6 -9 15 13 20 69 15 28 -2 75 -6 105 -9z m1460 -4 c0 -5 -2 -10 -4 -10 -3
0 -8 5 -11 10 -3 6 -1 10 4 10 6 0 11 -4 11 -10z m-655 -30 c3 -5 1 -10 -4
-10 -6 0 -11 5 -11 10 0 6 2 10 4 10 3 0 8 -4 11 -10z m75 0 c0 -5 -4 -10 -10
-10 -5 0 -10 5 -10 10 0 6 5 10 10 10 6 0 10 -4 10 -10z m-1590 -46 c0 -2 -8
-1 -17 2 -15 5 -15 3 1 -10 11 -9 16 -16 10 -16 -5 1 -22 12 -39 26 -18 15
-23 22 -11 18 14 -6 17 -4 11 5 -4 8 4 6 19 -4 14 -10 26 -19 26 -21z m1689 8
c-5 -2 -22 -1 -36 3 -19 4 -23 9 -14 14 7 5 23 3 37 -3 13 -6 19 -13 13 -14z
m-1960 -46 c8 -9 8 -16 2 -20 -6 -4 -15 3 -21 14 -12 23 2 27 19 6z m1981 -15
c25 -7 63 -21 85 -30 22 -9 44 -16 50 -17 5 0 24 -7 40 -14 43 -18 96 -20 122
-4 14 9 24 10 28 4 3 -6 15 -10 26 -10 10 0 19 -7 19 -15 0 -8 -7 -15 -15 -15
-32 0 -12 -18 53 -48 53 -25 61 -31 35 -28 -17 1 -38 7 -45 12 -21 16 -134 64
-149 63 -8 0 15 -14 50 -30 35 -16 61 -32 58 -35 -3 -3 -13 -1 -24 5 -41 24
-113 50 -113 40 0 -6 -5 -7 -11 -4 -6 4 -8 13 -5 21 3 8 1 14 -4 14 -6 0 -10
-4 -10 -8 0 -14 -89 4 -170 36 -8 3 -17 6 -20 6 -3 1 -11 5 -17 9 -9 6 -11 3
-6 -9 4 -12 3 -15 -6 -10 -21 13 -114 19 -107 7 4 -7 -1 -11 -13 -11 -11 0
-23 4 -26 10 -9 15 -55 8 -56 -10 0 -10 -2 -11 -6 -2 -6 16 -30 16 -35 0 -3
-9 -17 -4 -46 15 -23 15 -42 28 -42 30 0 1 26 3 57 4 72 3 117 8 129 15 26 16
82 25 99 15 15 -8 17 -7 11 8 -5 13 -3 15 6 8 7 -5 33 -15 58 -22z m-1435 -1
c10 -16 -23 -32 -42 -21 -12 7 -13 10 -4 11 10 0 11 3 2 14 -9 11 -6 12 14 8
14 -2 27 -8 30 -12z m-248 -53 c7 3 13 0 13 -6 0 -6 8 -11 17 -11 9 0 13 -3
10 -7 -8 -7 23 -32 41 -33 6 0 12 8 12 18 0 15 8 18 48 16 58 -2 75 -6 84 -19
5 -6 8 -6 8 2 0 7 10 10 26 7 14 -3 23 -1 20 5 -7 11 55 24 76 16 9 -4 23 1
32 11 15 14 19 14 34 2 23 -19 69 -38 90 -37 9 0 2 7 -17 16 -26 11 -31 17
-21 23 18 11 113 -36 107 -53 -4 -12 -38 -15 -67 -5 -8 3 -12 3 -7 1 14 -8 7
-22 -8 -17 -15 6 -17 0 -18 -43 0 -12 -3 -20 -7 -18 -5 3 -7 25 -5 50 2 41 0
45 -28 55 -44 15 -58 11 -17 -5 20 -8 27 -14 17 -14 -10 -1 -15 -6 -12 -11 4
-6 11 -7 17 -4 6 4 8 2 5 -3 -5 -7 -20 -8 -42 -3 -40 9 -65 -7 -65 -40 0 -10
-5 -22 -10 -25 -6 -4 -10 5 -8 22 3 41 -9 58 -30 41 -9 -8 -13 -8 -9 -2 7 12
-21 29 -31 19 -3 -3 0 -5 7 -5 7 0 9 -5 6 -10 -6 -10 -45 -7 -65 5 -5 3 -10 2
-10 -3 0 -10 -34 -8 -69 3 -21 6 -58 -12 -59 -30 0 -5 4 -15 9 -22 6 -7 6 -13
1 -17 -8 -5 -25 28 -24 45 2 11 -47 29 -53 20 -3 -5 -15 -7 -27 -3 -14 3 -19
2 -14 -6 8 -13 -6 -16 -18 -4 -4 4 -22 8 -39 9 -41 1 -81 9 -137 26 -25 8 -75
13 -110 12 -36 -1 -81 1 -100 5 -29 6 -23 8 31 9 71 1 85 7 68 28 -6 7 -10 13
-8 14 2 0 38 3 79 6 41 2 80 8 87 12 7 4 50 -5 95 -20 46 -15 88 -24 95 -22z
m-447 33 c0 -5 -2 -10 -4 -10 -3 0 -8 5 -11 10 -3 6 -1 10 4 10 6 0 11 -4 11
-10z m-310 -12 c36 -2 70 -8 75 -14 13 -15 54 -24 60 -14 7 11 95 4 108 -9 8
-8 -5 -11 -44 -12 -175 -5 -242 1 -302 26 -42 17 -81 20 -72 5 4 -6 12 -9 18
-8 7 1 36 -6 66 -16 48 -17 120 -27 209 -30 17 -1 32 -4 32 -7 0 -3 7 -6 15
-6 12 0 12 3 3 15 -11 12 0 13 77 7 50 -3 113 -9 140 -11 28 -3 56 -6 63 -6 6
-1 12 -5 12 -10 0 -7 -75 -13 -102 -9 -5 0 -8 -4 -8 -9 0 -6 -18 -9 -45 -6
-25 2 -45 1 -45 -3 0 -4 -15 -6 -34 -6 l-34 2 1 -108 c2 -76 5 -105 13 -98 7
5 11 3 11 -6 0 -8 -3 -12 -7 -10 -3 2 -12 0 -19 -4 -10 -7 -10 -11 1 -22 7 -8
12 -25 11 -39 -1 -14 -3 -58 -4 -97 -2 -42 -7 -73 -13 -74 -23 -1 -215 3 -286
6 -41 2 -112 3 -158 4 -58 1 -81 4 -76 12 6 10 15 177 14 252 0 15 4 27 10 27
5 0 10 6 10 13 0 16 48 16 71 1 17 -11 279 -12 279 -1 0 4 -12 7 -26 7 -14 0
-23 4 -19 10 3 6 19 10 35 10 16 0 32 5 35 11 5 7 12 6 23 -4 10 -8 31 -22 49
-31 26 -13 32 -13 36 -2 3 8 -1 17 -9 20 -8 3 -14 12 -14 20 0 19 -25 27 -39
13 -7 -7 -11 -7 -11 -1 0 6 -24 16 -52 24 -29 7 -64 20 -78 29 -18 12 -22 12
-16 2 7 -11 3 -13 -20 -9 -48 8 -128 30 -146 39 -24 12 -48 11 -48 -1 0 -5 5
-10 11 -10 5 0 7 -5 3 -11 -5 -8 3 -10 24 -7 17 2 29 1 27 -3 -3 -3 16 -12 40
-19 44 -12 63 -26 51 -37 -3 -3 -13 -2 -23 2 -25 11 -35 14 -58 17 -11 2 -27
9 -35 17 -10 9 -15 10 -18 2 -3 -8 -9 -8 -23 0 -11 5 -17 14 -14 19 3 5 -2 13
-11 18 -12 7 -13 11 -5 17 7 4 9 11 3 18 -5 7 -7 30 -5 53 5 40 5 41 56 50 29
5 77 8 107 7 30 -2 84 -4 120 -5z m2067 6 c-3 -3 -12 -4 -19 -1 -8 3 -5 6 6 6
11 1 17 -2 13 -5z m-1687 -13 c0 -6 -4 -13 -10 -16 -5 -3 -10 1 -10 9 0 9 5
16 10 16 6 0 10 -4 10 -9z m2475 -30 c5 -9 62 -41 72 -41 2 0 1 5 -3 12 -4 6
-3 9 2 6 5 -2 27 -13 49 -23 22 -9 50 -27 63 -38 16 -15 22 -17 22 -6 0 12 2
11 10 -1 6 -10 5 -19 -5 -29 -11 -12 -20 -10 -60 13 -60 33 -73 34 -20 1 30
-19 35 -25 20 -25 -11 0 -31 7 -43 16 -12 8 -22 12 -22 8 0 -4 -8 0 -17 8 -10
8 -34 21 -53 28 -48 19 -59 31 -49 58 9 23 24 29 34 13z m-1100 -11 c3 -6 -1
-7 -9 -4 -18 7 -21 14 -7 14 6 0 13 -4 16 -10z m-309 -19 c10 1 29 -2 42 -6
15 -5 22 -3 22 6 0 12 2 12 9 0 5 -7 20 -13 35 -13 14 0 31 -7 37 -14 6 -8 19
-14 28 -15 9 0 11 -3 4 -5 -6 -3 -35 2 -64 10 -63 19 -62 19 -53 4 4 -7 3 -8
-4 -4 -7 4 -22 9 -34 12 -13 3 -30 7 -38 9 -8 2 -20 4 -26 4 -6 1 -11 8 -11
15 0 11 5 12 17 6 9 -5 25 -9 36 -9z m1627 5 c4 -10 1 -13 -9 -9 -15 6 -19 23
-5 23 5 0 11 -7 14 -14z m-1696 -31 c0 -8 -4 -15 -7 -15 -12 0 -30 26 -24 33
10 10 31 -3 31 -18z m1653 11 c8 -1 15 -6 15 -11 0 -12 -9 -9 -44 11 -15 9
-17 12 -6 8 11 -3 27 -7 35 -8z m-1253 -24 c10 -5 34 -8 53 -7 19 1 44 -4 55
-11 14 -10 15 -14 5 -14 -8 -1 -3 -8 13 -16 15 -8 35 -13 45 -12 9 2 16 -2 15
-9 -2 -7 3 -10 11 -7 8 3 37 -6 65 -20 28 -15 51 -22 51 -18 0 5 -10 14 -22
21 -23 11 -23 11 2 5 14 -3 33 -6 42 -5 10 0 20 -4 23 -10 4 -5 16 -9 28 -9
19 0 18 3 -11 21 -46 30 -31 38 18 10 22 -12 44 -20 48 -17 4 2 26 -6 47 -19
40 -24 122 -65 131 -65 3 0 2 6 -1 13 -4 6 0 4 9 -7 10 -12 21 -16 33 -12 13
5 15 4 7 -4 -11 -11 -50 -8 -159 15 -29 6 -29 6 -11 -9 25 -20 15 -20 -32 -1
-29 13 -34 18 -22 25 8 5 11 10 5 10 -5 0 -21 3 -35 7 -22 6 -24 5 -11 -10 12
-15 9 -15 -40 -1 -30 9 -67 23 -83 31 -16 8 -47 16 -70 18 -59 4 -58 4 -52 13
3 5 -8 7 -23 4 -19 -2 -35 3 -47 15 -11 10 -32 25 -49 32 -16 7 -38 17 -47 22
-11 6 -18 5 -18 -1 0 -5 -7 -10 -15 -10 -8 0 -15 4 -15 9 0 5 -18 11 -39 15
-22 3 -43 11 -46 17 -9 13 114 5 142 -9z m-812 -17 c-3 -35 -15 -44 -15 -13 0
21 7 38 16 38 1 0 1 -11 -1 -25z m-1658 -7 c-3 -8 -6 -5 -6 6 -1 11 2 17 5 13
3 -3 4 -12 1 -19z m1272 8 c7 -8 8 -17 3 -20 -6 -3 -12 3 -15 14 -6 24 -4 25
12 6z m134 -21 c-7 -21 -13 -19 -13 6 0 11 4 18 10 14 5 -3 7 -12 3 -20z m660
5 c-6 -22 -15 -19 -19 5 -1 8 4 15 11 15 8 0 11 -7 8 -20z m-1848 -9 c3 -5 2
-12 -3 -15 -5 -3 -9 1 -9 9 0 17 3 19 12 6z m2266 -1 c6 0 7 -5 4 -11 -4 -6
-1 -10 6 -8 8 1 23 1 34 0 19 -2 19 -3 -2 -11 -28 -12 -80 5 -80 26 0 9 6 13
14 9 8 -3 19 -5 24 -5z m144 0 c3 -6 -1 -7 -9 -4 -18 7 -21 14 -7 14 6 0 13
-4 16 -10z m-2569 -27 c-6 -6 -36 9 -36 18 0 5 9 4 20 -3 10 -7 18 -14 16 -15z
m2377 -15 c-9 -17 -23 -7 -19 15 7 33 7 33 15 12 5 -11 7 -23 4 -27z m352 32
c3 -6 -1 -7 -9 -4 -18 7 -21 14 -7 14 6 0 13 -4 16 -10z m770 -10 c3 -6 -1 -7
-9 -4 -18 7 -21 14 -7 14 6 0 13 -4 16 -10z m-2875 -35 c7 -8 8 -15 2 -15 -5
0 -15 7 -22 15 -7 8 -8 15 -2 15 5 0 15 -7 22 -15z m1855 0 c41 -3 88 -23 80
-35 -10 -15 -37 -12 -80 10 -22 11 -45 20 -52 20 -6 0 -15 5 -19 11 -4 8 1 9
17 3 13 -4 38 -8 54 -9z m-2922 -26 c10 -11 30 -20 45 -20 15 -1 38 -3 52 -5
29 -5 133 -11 275 -16 70 -2 104 1 113 10 7 6 23 13 35 13 12 1 37 2 55 4 58
4 64 -12 56 -139 -3 -61 -11 -114 -16 -117 -5 -3 -6 -17 -3 -31 7 -28 -4 -36
-45 -33 -30 3 -567 18 -592 17 -11 0 -18 7 -18 19 0 10 0 20 -1 22 -7 20 -19
112 -24 187 -4 52 -8 101 -11 108 -6 20 56 5 79 -19z m577 5 c0 -2 -7 -4 -15
-4 -8 0 -15 4 -15 10 0 5 7 7 15 4 8 -4 15 -8 15 -10z m3020 -4 c52 -27 51
-31 -5 -12 -25 8 -45 18 -45 23 0 13 6 11 50 -11z m-2795 0 c3 -5 1 -10 -4
-10 -6 0 -11 5 -11 10 0 6 2 10 4 10 3 0 8 -4 11 -10z m420 0 c3 -5 -1 -10
-10 -10 -9 0 -13 5 -10 10 3 6 8 10 10 10 2 0 7 -4 10 -10z m1890 -11 c5 -5
-5 -4 -23 2 -17 6 -32 13 -32 16 0 7 43 -8 55 -18z m-2240 -1 c21 -9 28 -9 34
1 6 9 11 9 15 3 8 -13 -21 -23 -49 -17 -11 2 -23 4 -27 4 -8 1 -11 21 -3 21 2
0 16 -5 30 -12z m120 -16 c-3 -3 -11 0 -18 7 -9 10 -8 11 6 5 10 -3 15 -9 12
-12z m1821 9 c-3 -5 1 -14 9 -21 8 -7 15 -10 15 -6 0 4 13 0 28 -8 26 -13 29
-13 40 5 9 14 19 17 44 12 36 -7 165 -56 213 -81 17 -9 38 -16 48 -17 11 -1
23 -8 28 -16 8 -12 10 -12 18 0 6 9 11 10 15 2 4 -6 12 -8 18 -5 5 4 2 -6 -8
-20 -10 -17 -20 -23 -24 -16 -4 6 -14 8 -23 4 -10 -3 -17 -1 -17 6 0 6 -4 8
-10 5 -5 -3 -10 -1 -10 5 0 6 -16 18 -35 26 -39 16 -57 18 -35 4 13 -9 13 -10
0 -10 -13 0 -13 -1 0 -10 8 -5 20 -10 25 -10 6 0 3 5 -5 10 -17 11 -9 13 14 4
15 -6 15 -8 -1 -19 -15 -11 -25 -9 -65 11 -26 13 -55 24 -64 24 -11 0 -14 5
-10 16 5 14 4 15 -9 4 -11 -9 -15 -9 -15 -1 0 7 -5 9 -12 4 -20 -11 -50 -9
-82 5 -17 8 -25 9 -22 3 4 -6 2 -11 -4 -11 -6 0 -8 -5 -4 -12 4 -6 3 -8 -4 -5
-5 4 -8 17 -5 30 3 12 1 18 -4 12 -4 -5 -20 -20 -34 -33 -31 -27 -31 -25 -27
81 1 20 5 37 10 37 5 0 7 -4 4 -9z m699 -11 c-4 -6 6 -7 25 -4 31 7 43 -9 14
-20 -10 -4 -13 -2 -8 6 5 8 2 9 -10 5 -21 -8 -39 0 -31 14 4 5 8 9 11 9 3 0 2
-4 -1 -10z m-1968 -14 c0 -8 -8 -11 -21 -8 -19 5 -19 6 0 13 10 4 19 8 20 8 0
1 1 -5 1 -13z m2077 -11 c25 -19 9 -19 -24 0 -14 8 -19 14 -10 14 8 0 24 -6
34 -14z m-1038 -7 c3 -4 -1 -5 -10 -4 -8 1 -18 5 -22 8 -3 4 1 5 10 4 8 -1 18
-5 22 -8z m1478 -13 c43 -2 81 -6 83 -8 2 -3 0 -33 -4 -68 l-8 -64 -60 2 c-33
1 -85 5 -115 8 -98 11 -130 12 -125 4 5 -7 -24 -1 -75 18 -14 5 -38 9 -54 8
-20 -1 -30 5 -34 17 -4 17 -26 20 -50 5 -7 -5 -10 -12 -7 -17 3 -5 1 -11 -5
-15 -5 -3 -10 -1 -10 4 0 6 -6 11 -14 11 -8 0 -30 14 -48 30 -23 21 -27 29
-13 24 11 -4 26 -12 33 -17 7 -5 15 -7 19 -3 3 3 1 6 -6 6 -7 0 -9 5 -6 10 3
6 -1 10 -10 10 -9 0 -13 5 -10 10 4 6 12 7 18 3 17 -11 30 -11 44 0 7 5 20 6
30 3 9 -4 20 -2 23 5 6 8 21 7 60 -4 49 -15 54 -14 118 9 45 16 80 22 107 19
22 -3 76 -7 119 -10z m-2540 -6 c3 -3 -5 -5 -19 -5 -13 0 -22 3 -19 7 4 8 30
6 38 -2z m-170 -21 c-4 -6 -10 -5 -15 3 -7 12 -9 12 -9 0 0 -8 -3 -12 -6 -8
-10 10 6 26 21 21 8 -4 12 -11 9 -16z m1423 6 c0 -10 -10 -11 -35 -5 -2 1 -1
5 2 9 8 13 33 10 33 -4z m201 -94 c8 0 13 -2 10 -5 -3 -4 -18 -3 -33 1 -20 5
-23 9 -13 15 7 5 14 4 16 -1 2 -6 11 -10 20 -10z m-58 -27 c33 -17 55 -16 70
2 8 9 17 12 24 7 26 -20 105 -33 185 -32 47 1 96 -1 107 -5 12 -4 24 -3 27 3
8 12 118 -4 128 -19 10 -17 44 -19 102 -7 29 6 45 14 41 20 -5 7 -2 8 7 3 19
-12 49 -14 55 -3 3 4 9 6 14 3 5 -3 11 -1 15 4 4 7 15 7 30 1 19 -7 25 -6 25
5 0 12 7 12 43 2 25 -8 58 -10 82 -6 22 4 42 6 45 4 16 -10 80 -13 85 -5 8 13
68 13 99 -1 27 -12 27 -21 1 -134 l-11 -50 -59 2 c-33 1 -217 4 -410 7 -417 5
-808 16 -815 23 -9 9 -6 58 4 65 6 4 43 7 81 7 50 -1 63 -3 45 -9 -28 -9 -30
-9 100 -16 203 -13 275 -1 146 24 -35 6 -72 14 -82 18 -18 5 -18 5 -1 -9 26
-21 21 -27 -15 -16 -17 5 -34 7 -36 4 -3 -3 -10 0 -17 5 -6 5 -61 10 -122 11
l-110 2 2 41 c2 23 3 47 4 54 1 17 75 13 111 -5z m390 7 c8 -5 11 -10 5 -10
-5 0 -17 5 -25 10 -8 5 -10 10 -5 10 6 0 17 -5 25 -10z m-1245 -100 c3 -5 2
-10 -4 -10 -5 0 -13 5 -16 10 -3 6 -2 10 4 10 5 0 13 -4 16 -10z m-5 -32 c0
-4 -16 -8 -36 -8 -19 0 -33 4 -30 8 3 5 19 8 35 8 17 0 31 -3 31 -8z m-292
-26 c17 -11 9 -56 -11 -60 -26 -5 -47 46 -24 60 15 10 19 10 35 0z m298 -26
c-2 -28 -6 -31 -39 -34 -36 -3 -37 -2 -37 30 0 32 1 34 39 34 38 0 39 -1 37
-30z m987 -1018 c12 -6 28 -17 35 -25 20 -20 62 -15 106 11 40 25 55 24 95 -6
33 -25 64 -23 117 8 43 25 45 25 70 9 32 -20 24 -30 -25 -31 -23 0 -49 -9 -66
-22 -35 -28 -44 -28 -101 3 -51 27 -72 26 -113 -6 -30 -24 -59 -24 -91 1 -33
26 -45 25 -108 -7 l-52 -26 -29 21 c-48 35 -74 37 -124 8 -53 -31 -67 -32 -67
-6 0 11 7 20 15 20 9 0 38 12 65 26 l50 26 33 -21 c44 -27 73 -26 122 4 47 29
41 28 68 13z m-1214 -27 c38 -27 61 -26 122 5 l50 27 29 -22 c36 -26 87 -27
120 -1 32 25 65 25 100 0 30 -22 64 -27 93 -15 19 8 23 -10 8 -34 -14 -21 -76
-19 -100 3 -24 22 -82 17 -111 -9 -23 -21 -67 -19 -97 5 -34 26 -64 25 -120
-5 l-47 -25 -42 25 c-24 14 -49 25 -57 25 -17 0 -26 18 -20 37 6 16 37 9 72
-16z m1521 17 c0 -4 -9 -8 -19 -8 -11 0 -22 4 -25 8 -2 4 6 8 20 8 13 0 24 -4
24 -8z m-2571 -30 c30 -23 68 -23 106 0 51 31 61 32 96 6 39 -29 81 -31 117
-6 15 10 32 22 38 25 6 3 32 -5 58 -19 l48 -26 50 26 c27 14 57 26 67 26 14 0
71 -44 71 -55 0 -5 -42 1 -60 9 -9 4 -37 -5 -63 -19 -58 -30 -74 -31 -103 -4
-28 27 -71 27 -114 0 -45 -27 -61 -26 -105 3 -38 26 -71 24 -117 -8 -30 -21
-55 -20 -85 4 -31 24 -80 26 -111 4 -18 -12 -26 -13 -37 -4 -11 10 -5 17 38
39 55 29 67 29 106 -1z m815 26 c9 -3 16 -15 16 -25 0 -10 5 -19 12 -19 6 0 9
-2 6 -5 -3 -3 -21 2 -41 10 -25 10 -35 20 -31 30 7 16 14 18 38 9z m950 -45
c3 -20 0 -26 -12 -25 -24 2 -32 29 -13 43 19 14 19 14 25 -18z m727 -17 c50
-30 66 -29 138 13 47 26 43 3 -5 -31 -67 -48 -80 -50 -123 -20 -46 32 -53 32
-119 -1 l-52 -26 -30 21 c-37 28 -80 28 -114 1 -35 -28 -66 -27 -104 1 -34 25
-81 23 -112 -5 -28 -26 -56 -25 -92 2 l-33 25 47 -6 c39 -6 54 -3 96 21 l50
27 39 -27 c48 -33 53 -33 118 0 l53 26 35 -21 c44 -28 63 -27 111 2 46 28 50
28 97 -2z m-1870 -19 c29 -24 134 -13 156 16 10 14 15 14 43 -8 34 -25 50 -27
118 -16 30 6 42 12 38 21 -8 22 28 17 59 -8 35 -27 84 -27 123 0 38 27 62 28
96 1 34 -27 76 -27 121 0 45 26 55 26 100 0 31 -19 42 -20 71 -11 20 6 36 6
40 1 3 -5 0 -9 -6 -9 -7 0 -23 -8 -36 -19 -26 -20 -66 -18 -85 5 -17 20 -69
17 -107 -6 -41 -25 -63 -25 -95 0 -32 25 -85 25 -117 0 -32 -25 -61 -25 -93 0
-32 25 -85 25 -117 0 -32 -25 -61 -25 -93 0 -32 25 -85 25 -117 0 -32 -25 -50
-25 -100 1 l-41 21 -50 -26 c-61 -31 -69 -32 -102 -6 -38 30 -67 30 -119 2
-50 -28 -42 -29 -121 14 -27 15 -32 14 -79 -10 -60 -31 -68 -32 -102 -5 -18
14 -42 22 -67 22 -45 0 -58 11 -30 26 29 16 55 13 84 -9 32 -25 74 -25 112 0
38 25 77 25 100 0 23 -26 70 -26 113 0 41 25 74 25 97 0 24 -27 71 -25 119 4
40 24 58 24 87 -1z m1148 -24 c-36 -28 -69 -28 -106 0 -21 18 -20 18 54 18 75
0 75 0 52 -18z m725 -17 c16 -12 32 -19 37 -16 5 3 9 0 9 -6 0 -19 -28 -22
-52 -6 -29 21 -56 20 -93 -2 -48 -29 -72 -32 -99 -11 -31 24 -73 24 -111 -1
-38 -25 -66 -25 -98 0 -32 25 -74 25 -112 0 -38 -25 -77 -25 -100 0 -23 26
-71 26 -110 0 -38 -25 -66 -25 -98 0 -32 25 -74 25 -112 0 -38 -25 -59 -25
-100 0 -36 22 -57 21 -106 -9 -43 -27 -52 -26 -96 3 -40 27 -69 26 -119 -5
-41 -25 -53 -24 -94 6 -38 28 -60 27 -111 -4 -44 -27 -58 -26 -98 3 -37 28
-64 26 -122 -7 l-39 -22 -39 23 c-51 28 -63 28 -116 -4 -42 -24 -85 -26 -85
-4 0 13 -65 31 -86 24 -10 -4 -31 -16 -46 -26 -33 -23 -49 -23 -79 1 -43 33
-65 34 -123 5 l-55 -27 -55 42 c-31 23 -56 44 -56 47 0 9 44 -8 69 -27 32 -25
60 -24 111 5 45 26 69 24 96 -5 23 -25 75 -24 108 2 35 28 66 27 104 -1 35
-26 76 -23 120 9 34 24 39 24 88 -5 l41 -24 49 25 c61 31 74 31 119 1 38 -26
63 -25 107 6 28 20 73 24 83 8 3 -6 19 -17 35 -25 26 -13 32 -12 76 10 57 29
81 31 104 10 10 -9 31 -20 48 -24 25 -7 37 -5 66 15 42 29 70 30 102 5 30 -24
74 -20 111 9 31 24 66 26 84 4 28 -34 59 -36 117 -8 57 28 55 28 122 -11 29
-17 62 -12 101 16 35 24 42 24 92 -5 39 -23 97 -27 97 -6 0 9 46 30 66 30 9 0
27 -9 41 -20 34 -26 59 -25 108 4 46 29 61 28 99 -2z m-23 -42 c31 -17 22 -30
-20 -30 -23 0 -48 -8 -64 -20 -31 -24 -59 -25 -93 -3 -33 21 -77 19 -113 -6
-37 -27 -55 -26 -93 0 -37 27 -80 27 -114 0 -34 -27 -58 -26 -96 0 -29 21 -76
28 -98 14 -21 -13 -8 -20 31 -17 31 3 46 -1 64 -18 19 -18 31 -22 61 -17 20 3
44 12 53 20 29 25 48 26 84 1 43 -29 83 -30 117 -4 26 20 75 27 84 11 3 -5 19
-14 36 -19 24 -9 37 -7 75 14 74 39 76 27 2 -17 l-67 -40 -26 20 c-31 25 -71
27 -101 6 -46 -33 -69 -35 -104 -11 -38 26 -67 25 -114 -4 -39 -24 -63 -25
-87 -3 -16 15 -18 15 -18 0 0 -19 29 -37 59 -37 11 0 41 11 67 25 l46 25 29
-21 c38 -27 80 -27 117 0 37 26 63 27 93 2 l23 -18 -22 -7 c-12 -4 -26 -5 -31
-2 -4 3 -30 -6 -57 -19 -59 -30 -71 -30 -104 -5 -32 25 -76 25 -118 0 -37 -23
-63 -25 -80 -8 -17 17 -28 2 -12 -17 17 -21 63 -19 102 5 41 25 66 25 98 0 14
-11 34 -20 45 -20 18 -1 17 -2 -5 -15 -14 -7 -27 -10 -30 -6 -21 32 -76 32
-120 1 -34 -24 -58 -25 -82 -3 -17 15 -18 15 -18 -4 0 -40 51 -43 117 -8 37
19 50 22 67 13 20 -11 20 -11 1 -19 -11 -4 -43 -17 -72 -28 -57 -23 -88 -27
-98 -11 -3 6 -16 10 -28 10 -20 -1 -20 -2 -4 -11 27 -16 20 -29 -16 -29 -18 0
-50 -9 -72 -20 -22 -11 -48 -20 -58 -20 -10 0 -30 9 -44 20 -33 26 -65 25
-111 -3 -40 -24 -73 -25 -92 -1 -17 20 -69 17 -108 -6 -41 -25 -74 -25 -97 0
-24 26 -82 26 -115 0 -32 -25 -57 -25 -95 0 -38 25 -83 25 -115 0 -33 -26 -72
-25 -96 1 -17 19 -26 20 -76 15 -32 -3 -58 -3 -58 -1 0 10 65 45 84 45 11 0
30 -10 43 -22 28 -26 69 -26 114 1 43 26 54 26 91 0 37 -27 75 -27 119 0 41
25 72 27 90 5 28 -35 59 -36 117 -7 l54 27 40 -23 c44 -25 68 -23 121 10 29
19 30 20 7 16 -14 -3 -39 -11 -57 -18 -28 -12 -34 -11 -53 6 -27 24 -88 21
-136 -7 l-35 -21 -31 23 c-32 24 -99 30 -122 11 -31 -26 -64 -30 -89 -11 -32
25 -96 29 -127 7 -31 -22 -68 -22 -92 0 -24 22 -87 19 -130 -7 l-34 -20 -44
24 c-32 17 -51 21 -71 16 -14 -4 -32 -4 -40 0 -9 6 -2 14 25 26 35 17 39 17
67 2 31 -18 39 -9 13 16 -21 22 -62 20 -102 -4 -41 -25 -54 -25 -127 9 -56 26
-59 28 -38 39 21 12 53 7 53 -8 0 -4 13 -13 30 -20 27 -11 36 -9 85 16 55 27
57 27 85 10 32 -18 40 -8 14 18 -22 23 -56 20 -110 -9 -48 -26 -67 -23 -102
12 -18 17 -43 17 -71 -3 -18 -13 -28 -14 -48 -5 -25 12 -25 12 26 38 l52 27
36 -19 c50 -27 71 -27 121 2 39 23 46 24 70 12 15 -7 31 -15 35 -17 5 -3 4 5
-2 16 -19 35 -64 37 -117 6 l-47 -28 -38 22 c-49 28 -71 28 -125 -4 l-45 -26
-39 26 c-22 14 -48 26 -57 26 -10 0 -25 5 -33 10 -13 9 -13 11 0 20 23 15 38
12 78 -15 20 -14 42 -25 48 -25 6 0 32 11 58 25 58 31 58 31 104 0 42 -28 68
-27 111 4 35 25 54 26 86 5 29 -19 33 -9 8 18 -22 24 -53 23 -108 -7 -38 -20
-50 -22 -71 -13 -13 6 -24 15 -24 19 0 5 -15 11 -34 14 -27 5 -44 1 -80 -20
-47 -27 -67 -25 -104 12 -17 17 -63 17 -87 -1 -18 -13 -45 -11 -45 3 0 3 20
17 43 30 l44 24 45 -27 c55 -32 70 -32 116 -1 44 30 52 31 84 6 43 -34 73 -36
122 -7 54 31 61 32 93 6 34 -27 66 -25 119 6 l45 26 39 -26 c49 -32 74 -32
124 -2 40 25 55 24 95 -6 32 -25 64 -23 116 8 46 26 66 24 103 -13 20 -20 59
-16 106 12 l42 25 48 -26 48 -26 50 26 c60 31 71 32 108 5 15 -12 40 -21 55
-21 15 0 40 9 55 21 34 24 72 27 89 7 7 -8 25 -19 41 -25 24 -8 37 -6 75 15
56 29 69 30 102 4 14 -11 40 -20 58 -20 18 0 44 9 58 20 31 25 56 25 99 2 40
-23 63 -21 108 7 40 24 44 25 71 11z m-825 -365 c10 -8 15 -15 9 -15 -5 -1
-19 -3 -30 -6 -11 -2 -40 -6 -65 -10 -25 -3 -49 -9 -55 -12 -5 -3 -7 -2 -4 1
11 13 94 56 110 56 8 1 24 -6 35 -14z m-843 -2 c-7 -2 -19 -2 -25 0 -7 3 -2 5
12 5 14 0 19 -2 13 -5z m234 -13 c33 -25 69 -25 111 0 41 25 74 25 97 0 24
-26 82 -26 115 0 30 23 73 26 90 5 7 -8 19 -15 26 -15 8 0 14 -4 14 -9 0 -24
-482 -20 -549 4 -11 4 -10 9 5 20 27 20 62 18 91 -5z"/>
<path d="M3597 6513 c-4 -3 -7 -17 -7 -29 0 -13 -8 -28 -17 -33 -26 -15 0 -13
28 2 18 9 23 19 21 40 -3 26 -12 34 -25 20z"/>
<path d="M3553 6417 c-8 -13 6 -22 37 -23 16 -1 31 4 34 12 3 8 2 14 -2 15
-41 4 -64 3 -69 -4z"/>
<path d="M3335 6410 c-4 -6 -11 -8 -16 -5 -5 4 -16 2 -25 -3 -13 -7 -14 -11
-3 -17 36 -23 91 -3 64 22 -9 8 -16 9 -20 3z"/>
<path d="M3491 6412 c0 -7 -5 -11 -10 -7 -5 3 -12 1 -16 -5 -4 -6 -11 -7 -17
-4 -6 4 -9 1 -6 -7 3 -8 16 -13 28 -11 30 3 33 6 27 29 -3 10 -5 12 -6 5z"/>
<path d="M3562 6359 c-11 -11 -19 -32 -18 -47 1 -23 6 -28 36 -33 37 -7 28
-10 -29 -13 -29 -1 -37 4 -51 29 -9 17 -26 31 -38 33 -18 3 -26 -5 -38 -34
-20 -47 -10 -67 35 -74 30 -5 31 -6 17 -26 -9 -12 -31 -29 -51 -38 -40 -19
-38 -36 4 -36 32 0 54 21 68 65 8 27 15 31 58 36 55 6 75 26 75 77 0 64 -36
96 -68 61z m38 -35 c0 -2 -9 -4 -21 -4 -11 0 -18 4 -14 10 5 8 35 3 35 -6z
m-136 -40 c23 -9 20 -23 -4 -17 -11 3 -20 9 -20 14 0 11 3 11 24 3z"/>
<path d="M3292 6313 c-23 -60 -23 -72 -3 -92 32 -32 87 -12 91 34 4 37 0 45
-32 65 -42 25 -44 25 -56 -7z m71 -49 c3 -14 -42 -17 -58 -4 -8 6 -11 18 -9
25 5 11 11 11 35 1 17 -7 31 -17 32 -22z"/>
<path d="M4235 6471 c4 -14 0 -21 -12 -24 -12 -3 -13 -5 -3 -6 24 -1 43 16 37
33 -9 23 -30 20 -22 -3z"/>
<path d="M4318 6474 c-16 -8 -28 -19 -28 -24 0 -5 13 -1 30 8 16 9 30 20 30
25 0 9 0 9 -32 -9z"/>
<path d="M3919 6438 c-1 -7 -1 -17 0 -22 1 -5 -6 -17 -15 -27 -9 -11 -12 -19
-7 -19 6 0 16 7 23 15 7 8 16 12 21 9 5 -3 9 9 9 25 0 21 -5 31 -15 31 -8 0
-16 -6 -16 -12z"/>
<path d="M4050 6417 c-11 -8 -15 -28 -15 -62 2 -91 -10 -102 -75 -66 -32 17
-37 17 -68 3 -36 -18 -44 -37 -38 -97 2 -22 4 -48 5 -58 1 -10 5 -16 10 -12 5
3 9 28 7 56 -1 30 3 54 11 60 15 13 33 3 33 -17 0 -8 9 -23 20 -34 16 -16 25
-18 40 -10 11 6 20 17 20 24 0 18 40 28 79 20 22 -5 37 -2 50 10 16 15 19 15
31 1 7 -8 25 -15 41 -15 36 0 51 27 52 97 1 29 4 53 9 53 4 0 2 11 -4 25 -20
44 -33 23 -30 -48 3 -72 -4 -83 -46 -72 -26 6 -26 7 -8 20 40 30 -20 63 -64
35 -12 -7 -12 -12 4 -29 18 -20 18 -20 -8 -27 -15 -3 -30 -3 -34 0 -3 4 -5 40
-4 81 2 41 2 75 0 75 -2 0 -10 -6 -18 -13z m-75 -186 c3 -5 0 -13 -6 -17 -12
-7 -39 20 -39 38 0 10 36 -7 45 -21z"/>
<path d="M4311 6413 c-20 -17 -21 -21 -10 -107 7 -49 15 -82 19 -75 9 16 24
199 17 199 -3 0 -14 -8 -26 -17z"/>
<path d="M4143 6190 c-44 -26 -42 -34 2 -13 19 9 35 20 35 25 0 11 0 11 -37
-12z"/>
<path d="M5015 5330 c-4 -16 -11 -31 -16 -31 -5 -1 -18 -3 -29 -4 -11 -1 -23
-3 -27 -4 -5 -1 3 -11 16 -21 19 -17 22 -26 16 -56 -7 -38 -1 -39 36 -7 14 11
20 10 42 -7 34 -27 38 -25 25 12 -10 28 -9 33 15 54 29 25 26 32 -15 29 -22
-2 -28 3 -33 26 -9 41 -22 44 -30 9z"/>
<path d="M4575 5109 c-9 -30 -15 -35 -48 -39 l-39 -5 31 -23 c27 -19 29 -25
21 -48 -16 -41 -12 -46 20 -22 l30 22 29 -22 29 -21 -8 36 c-7 31 -5 38 18 59
l27 23 -35 1 c-31 0 -37 5 -50 37 l-15 36 -10 -34z"/>
<path d="M4895 5048 c-8 -27 -15 -33 -37 -33 -38 0 -43 -11 -13 -31 14 -9 24
-22 22 -28 -2 -6 -8 -22 -12 -35 l-7 -23 29 17 c28 16 32 16 62 0 l33 -16 -7
23 c-4 13 -10 28 -12 34 -2 6 8 19 22 28 31 20 25 35 -11 31 -21 -2 -29 4 -40
31 -8 19 -16 34 -17 34 -2 0 -7 -15 -12 -32z"/>
<path d="M5107 4830 c-4 -14 -14 -20 -33 -20 l-28 0 22 -16 c17 -12 21 -21 15
-42 -6 -24 -5 -26 11 -13 13 11 22 12 42 2 23 -10 25 -10 19 10 -4 13 -1 27
11 40 16 18 16 19 -9 19 -20 0 -27 5 -27 20 0 11 -4 20 -9 20 -5 0 -11 -9 -14
-20z"/>
<path d="M3506 4754 c-3 -8 -2 -12 3 -9 5 3 12 1 16 -5 3 -5 10 -10 16 -10 5
0 4 9 -3 20 -15 24 -24 25 -32 4z"/>
<path d="M3655 4610 c3 -5 11 -10 16 -10 6 0 7 5 4 10 -3 6 -11 10 -16 10 -6
0 -7 -4 -4 -10z"/>
<path d="M2082 4064 c10 -10 20 -15 24 -12 3 4 -5 12 -18 18 -22 12 -22 12 -6
-6z"/>
<path d="M3425 4370 c3 -5 14 -10 23 -10 15 0 15 2 2 10 -20 13 -33 13 -25 0z"/>
<path d="M5414 4153 c3 -7 -1 -13 -11 -15 -15 -3 -15 -5 3 -10 22 -6 28 12 9
29 -4 4 -5 3 -1 -4z"/>
<path d="M5580 4110 c0 -5 5 -10 11 -10 5 0 7 5 4 10 -3 6 -8 10 -11 10 -2 0
-4 -4 -4 -10z"/>
<path d="M2683 3794 c5 -5 16 -9 25 -10 10 -1 27 -2 40 -3 12 0 22 -8 22 -16
0 -10 10 -15 28 -16 15 0 34 -2 42 -4 8 -1 32 -5 52 -9 21 -3 57 -10 80 -15
23 -6 44 -8 46 -6 4 4 -29 23 -41 23 -20 1 -93 15 -102 21 -32 20 -208 52
-192 35z"/>
<path d="M2728 3763 c6 -2 18 -2 25 0 6 3 1 5 -13 5 -14 0 -19 -2 -12 -5z"/>
<path d="M5660 4121 c0 -12 5 -21 10 -21 6 0 10 6 10 14 0 8 -4 18 -10 21 -5
3 -10 -3 -10 -14z"/>
<path d="M5723 4079 c22 -11 42 -18 45 -15 10 10 -32 35 -58 35 -22 0 -21 -2
13 -20z"/>
<path d="M4705 4000 c3 -5 11 -10 16 -10 6 0 7 5 4 10 -3 6 -11 10 -16 10 -6
0 -7 -4 -4 -10z"/>
<path d="M4940 3950 c0 -5 5 -10 11 -10 5 0 7 5 4 10 -3 6 -8 10 -11 10 -2 0
-4 -4 -4 -10z"/>
<path d="M4686 3955 c10 -8 24 -14 29 -14 6 0 1 6 -9 14 -11 8 -24 15 -30 15
-5 0 -1 -7 10 -15z"/>
<path d="M4685 3880 c10 -11 22 -17 26 -14 5 3 9 -1 9 -8 0 -11 2 -10 9 0 7
11 9 10 15 -3 3 -10 13 -14 23 -11 10 3 25 1 33 -4 13 -9 13 -10 0 -10 -8 -1
0 -7 19 -16 19 -8 36 -12 39 -9 3 3 -1 5 -9 5 -12 0 -11 2 1 11 13 9 13 10 -2
6 -9 -3 -19 0 -21 8 -3 7 -19 16 -36 20 -17 4 -33 11 -36 16 -4 5 -15 9 -26 9
-10 0 -19 4 -19 8 0 4 -9 8 -21 9 -20 2 -20 1 -4 -17z"/>
<path d="M4579 3862 c12 -8 11 -11 -3 -15 -15 -4 -15 -5 1 -3 19 1 21 19 1 24
-10 3 -10 1 1 -6z"/>
<path d="M5337 3822 c3 -12 9 -25 14 -28 14 -8 11 10 -6 32 -13 18 -14 18 -8
-4z"/>
<path d="M5059 3616 c23 -24 49 -37 37 -17 -3 4 42 8 99 7 62 -1 107 3 109 9
3 6 5 4 5 -2 1 -7 9 -13 19 -13 14 0 15 2 2 10 -12 8 -10 10 8 10 13 0 21 -4
18 -9 -3 -4 6 -6 19 -3 14 2 31 0 38 -6 7 -6 21 -10 32 -8 10 1 37 -1 59 -6
56 -12 198 -19 166 -8 -14 4 -43 9 -65 9 -22 1 -69 8 -105 17 -44 11 -119 17
-230 18 -91 1 -181 6 -200 10 l-35 9 24 -27z"/>
<path d="M4680 3580 l-35 -7 38 -2 c20 0 37 4 37 9 0 6 -1 9 -2 9 -2 -1 -19
-5 -38 -9z"/>
<path d="M5025 3569 c-16 -6 -16 -8 -3 -8 9 -1 23 -4 32 -7 9 -3 16 -2 16 4 0
15 -22 20 -45 11z"/>
<path d="M5385 3571 c-3 -5 2 -11 10 -15 8 -3 17 -1 20 3 3 5 -2 11 -10 15 -8
3 -17 1 -20 -3z"/>
<path d="M5709 3569 c-7 -4 6 -10 30 -14 47 -8 50 -8 54 2 3 11 -70 21 -84 12z"/>
<path d="M5446 3558 c3 -5 10 -6 15 -3 13 9 11 12 -6 12 -8 0 -12 -4 -9 -9z"/>
<path d="M3286 2307 c-15 -11 -12 -13 26 -11 62 4 65 5 43 14 -29 13 -49 12
-69 -3z"/>
<path d="M3503 2313 c-25 -10 -12 -18 27 -18 41 0 52 8 24 19 -18 7 -33 7 -51
-1z"/>
<path d="M3705 2310 c-24 -10 -22 -11 33 -13 24 -1 41 2 39 8 -5 13 -47 16
-72 5z"/>
<path d="M3928 2313 c-32 -8 -19 -18 22 -18 41 0 52 8 24 19 -17 6 -19 6 -46
-1z"/>
<path d="M4110 2310 c-17 -11 -16 -11 45 -11 61 0 62 0 45 11 -8 5 -28 10 -45
10 -16 0 -37 -5 -45 -10z"/>
<path d="M3255 2272 c-30 -6 -45 -22 -45 -48 0 -25 10 -34 55 -49 35 -12 47
-45 17 -45 -11 0 -25 7 -32 15 -13 16 -50 21 -50 7 0 -5 9 -18 20 -30 40 -43
120 -21 120 32 0 29 -17 44 -58 52 -18 4 -32 13 -32 20 0 16 36 19 45 4 3 -5
15 -10 27 -10 19 0 19 2 6 22 -16 25 -44 36 -73 30z"/>
<path d="M3363 2255 c0 -8 9 -15 19 -15 10 0 18 7 18 15 0 8 -8 15 -18 15 -10
0 -19 -7 -19 -15z"/>
<path d="M3896 2254 c-22 -21 -20 -34 4 -34 11 0 20 5 20 10 0 6 6 10 14 10
28 0 22 -26 -15 -67 -55 -60 -52 -73 16 -73 49 0 55 2 55 20 0 16 -5 19 -25
16 -14 -3 -25 -2 -25 1 0 3 11 18 25 35 14 16 25 40 25 53 0 41 -63 60 -94 29z"/>
<path d="M4026 2248 c-9 -12 -16 -41 -16 -63 0 -22 7 -51 16 -63 20 -29 59
-29 78 1 18 27 16 108 -3 131 -19 23 -57 20 -75 -6z m54 -57 c0 -28 -5 -53
-11 -56 -14 -9 -18 -4 -20 31 -3 55 1 74 16 74 11 0 15 -12 15 -49z"/>
<path d="M4161 2261 c-18 -12 -29 -79 -19 -118 9 -36 48 -54 77 -36 25 15 37
93 20 129 -15 30 -51 42 -78 25z m47 -71 c3 -41 -10 -71 -25 -57 -8 8 -12 88
-6 100 11 20 28 -3 31 -43z"/>
<path d="M4285 2251 c-21 -24 -24 -90 -5 -126 31 -57 116 -9 94 53 -7 21 -17
28 -41 30 -23 2 -30 7 -26 18 5 15 33 20 33 6 0 -5 7 -9 15 -9 18 0 20 18 3
35 -18 18 -53 14 -73 -7z"/>
<path d="M3374 2222 c-6 -4 -10 -32 -9 -62 1 -43 5 -56 18 -58 15 -3 17 6 17
62 0 65 -4 73 -26 58z"/>
<path d="M3430 2163 c0 -49 3 -63 15 -63 13 0 21 26 16 54 -4 18 11 46 25 46
14 0 16 -4 19 -50 2 -14 3 -31 4 -37 0 -7 8 -13 16 -13 11 0 15 13 15 54 0 30
-5 58 -11 62 -7 4 -31 8 -55 9 l-44 2 0 -64z"/>
<path d="M3593 2220 c-46 -19 -37 -104 12 -116 32 -8 51 -1 65 25 9 18 8 21
-9 21 -11 0 -21 -5 -23 -12 -7 -21 -38 0 -38 26 0 32 14 40 39 24 25 -15 39
-3 25 20 -13 20 -40 25 -71 12z"/>
<path d="M3708 2213 c-15 -17 -22 -42 -19 -70 4 -42 82 -59 102 -22 11 21 9
21 -25 15 -23 -4 -36 -3 -36 4 0 10 8 12 48 13 16 0 22 6 22 22 0 43 -64 69
-92 38z m56 -22 c3 -5 -1 -12 -10 -15 -22 -9 -24 -8 -24 9 0 16 25 21 34 6z"/>
<path d="M4170 2072 c0 -4 16 -18 35 -31 40 -27 60 -24 126 14 38 22 40 25 14
19 -16 -4 -45 -14 -63 -21 -29 -12 -37 -12 -55 0 -30 19 -57 28 -57 19z"/>
<path d="M1320 4231 c-25 -10 -116 -44 -202 -76 -177 -64 -168 -56 -182 -178
-6 -57 -49 -155 -71 -163 -8 -4 -28 -1 -43 5 -77 32 -146 8 -168 -58 -15 -46
2 -116 37 -151 54 -53 165 -62 236 -19 30 19 32 19 29 2 -2 -10 0 -45 4 -78 5
-33 11 -82 15 -110 3 -27 8 -59 10 -70 5 -20 10 -49 21 -114 12 -70 76 -290
115 -396 149 -399 353 -718 654 -1021 330 -333 675 -551 1110 -701 143 -49
356 -101 490 -119 28 -3 59 -8 70 -10 49 -10 213 -19 355 -19 141 0 355 11
369 19 3 2 29 6 56 10 28 3 60 8 71 10 12 2 38 7 59 10 67 11 268 65 370 99
841 286 1509 954 1791 1795 20 59 38 115 40 126 2 10 10 42 18 70 8 28 26 110
40 181 22 117 30 172 41 285 2 19 4 40 4 45 1 6 5 4 10 -3 27 -43 166 -49 228
-11 55 34 83 117 58 175 -25 59 -90 84 -155 58 -29 -12 -43 -13 -58 -5 -26 14
-63 110 -69 176 -9 99 -2 94 -229 179 -113 42 -208 76 -213 76 -4 0 -1 -37 7
-82 24 -136 22 -590 -3 -733 -7 -36 -24 -131 -31 -165 -9 -43 -52 -192 -77
-265 -129 -375 -366 -733 -665 -1005 -118 -107 -104 -96 -192 -160 -189 -139
-369 -238 -605 -330 -44 -18 -87 -34 -95 -36 -8 -2 -55 -15 -105 -29 -263 -75
-572 -104 -860 -82 -668 53 -1291 385 -1719 917 -230 286 -409 660 -481 1007
-45 219 -54 325 -50 568 2 121 7 238 10 260 3 22 10 61 14 88 9 54 8 55 -59
28z m35 -48 c-2 -21 -7 -56 -10 -78 -4 -22 -8 -60 -10 -85 -5 -54 -5 -354 -1
-390 2 -14 7 -61 12 -105 4 -44 8 -82 9 -85 1 -3 5 -27 9 -55 31 -194 105
-428 201 -630 308 -654 898 -1148 1590 -1333 130 -35 198 -50 268 -58 29 -4
55 -8 59 -11 36 -21 585 -20 651 2 6 2 31 6 54 9 22 3 52 8 65 10 12 3 34 8
48 10 157 27 399 108 575 193 484 234 878 613 1124 1083 130 250 204 474 256
775 2 17 7 53 10 80 3 28 8 68 10 90 14 119 6 403 -16 544 -5 35 -8 65 -6 68
5 4 357 -125 372 -138 13 -9 19 -105 18 -289 0 -181 -10 -283 -49 -515 -19
-117 -77 -321 -132 -465 -290 -766 -909 -1382 -1672 -1662 -107 -39 -269 -88
-345 -103 -11 -3 -31 -7 -45 -10 -107 -23 -260 -46 -355 -53 -195 -15 -526 -3
-675 23 -411 74 -709 183 -1033 377 -705 425 -1213 1175 -1333 1973 -5 28 -9
52 -9 55 -1 3 -5 37 -9 75 -4 39 -10 81 -12 95 -5 28 -5 406 0 458 1 18 7 37
12 42 8 8 348 137 366 139 5 1 6 -16 3 -36z m-408 -411 c3 -116 1 -130 -17
-150 -37 -40 -144 -52 -190 -21 -11 7 -9 8 10 5 78 -12 142 68 119 148 -7 24
-4 32 15 47 13 10 31 37 40 59 9 22 17 40 18 40 2 0 4 -58 5 -128z m5737 93
c8 -19 27 -46 41 -59 23 -22 25 -29 17 -58 -20 -75 48 -157 119 -143 16 3 19
1 12 -6 -31 -31 -174 -11 -197 28 -9 15 -17 273 -9 273 2 0 9 -16 17 -35z
m-5869 -71 c31 -20 44 -61 33 -101 -11 -41 -42 -63 -89 -63 -29 0 -43 7 -63
31 -74 87 24 196 119 133z m6084 7 c87 -47 34 -189 -66 -173 -37 6 -73 50 -73
91 1 75 72 117 139 82z"/>
<path d="M997 3865 c-2 -5 -3 -39 -1 -74 2 -49 7 -69 23 -85 27 -27 98 -29
112 -3 9 15 13 16 39 2 22 -11 35 -12 59 -4 42 15 49 31 48 112 l0 68 -138 -2
c-85 -2 -140 -7 -142 -14z m120 -73 c1 -29 -18 -62 -35 -62 -20 1 -31 19 -35
57 l-4 42 36 -2 c33 -2 36 -5 38 -35z m113 3 c0 -23 -6 -37 -17 -43 -30 -15
-43 -3 -43 39 0 37 2 39 30 39 28 0 30 -3 30 -35z"/>
<path d="M6333 3858 c-2 -26 13 -31 93 -31 41 0 72 -2 70 -6 -2 -3 -41 -24
-85 -46 -66 -32 -81 -43 -81 -62 0 -21 4 -23 63 -24 34 0 95 -1 135 -3 63 -2
75 1 84 17 5 10 7 21 5 24 -3 2 -39 5 -81 6 -42 1 -76 4 -76 7 0 3 35 23 79
43 67 32 79 41 79 62 0 23 -5 25 -42 25 -22 1 -86 2 -142 3 -89 2 -100 0 -101
-15z"/>
<path d="M6425 3663 c-71 -14 -109 -53 -107 -110 3 -70 61 -113 155 -113 40 0
63 6 88 23 68 46 59 151 -16 183 -38 16 -89 23 -120 17z m97 -64 c32 -13 42
-46 23 -76 -38 -58 -175 -33 -175 32 0 54 73 75 152 44z"/>
<path d="M1064 3642 c-83 -39 -79 -161 5 -194 39 -14 125 -11 159 6 87 45 84
163 -6 197 -35 14 -121 9 -158 -9z m154 -48 c41 -28 23 -88 -30 -100 -83 -20
-148 15 -129 70 16 42 114 62 159 30z"/>
<path d="M6306 3427 c-3 -12 -1 -24 5 -28 6 -3 56 -14 112 -23 56 -10 114 -20
128 -22 21 -4 28 0 32 18 4 12 5 23 4 24 -1 1 -45 9 -97 18 -52 9 -108 19
-125 21 -16 3 -35 7 -42 10 -6 2 -14 -6 -17 -18z"/>
<path d="M1025 3399 c10 -31 8 -29 41 -35 35 -6 31 -1 37 -50 5 -37 3 -42 -24
-58 -24 -14 -28 -22 -23 -39 3 -12 7 -23 8 -24 6 -7 249 133 254 145 6 16 -10
47 -24 48 -19 1 -150 16 -166 19 -9 2 -37 7 -63 11 -46 6 -47 6 -40 -17z m205
-57 c0 -11 -66 -42 -74 -35 -3 4 -6 15 -6 25 0 14 8 18 40 18 22 0 40 -4 40
-8z"/>
<path d="M6296 3358 c-26 -112 -34 -153 -33 -154 1 -1 13 -4 26 -6 20 -2 26 3
33 28 l8 31 107 -23 c59 -12 111 -21 115 -18 4 3 8 14 8 24 0 19 0 19 -158 51
l-63 13 3 36 c3 30 0 35 -19 38 -16 2 -24 -3 -27 -20z"/>
<path d="M1268 3226 c-21 -8 -38 -13 -38 -11 0 1 -35 -8 -77 -20 -61 -18 -78
-27 -78 -41 0 -21 22 -23 87 -11 34 7 37 6 33 -13 -2 -12 -22 -39 -45 -60 -39
-37 -48 -62 -32 -87 6 -9 23 2 60 39 29 28 52 47 52 41 0 -15 50 -31 77 -24
36 9 63 39 63 67 0 14 -7 50 -16 80 -17 59 -23 62 -86 40z m41 -68 c15 -41 8
-63 -20 -66 -22 -3 -29 2 -38 29 -15 42 -14 47 7 52 34 9 43 7 51 -15z"/>
<path d="M6306 3150 c-50 -4 -60 -8 -67 -28 -8 -21 1 -29 113 -102 66 -44 125
-77 129 -74 18 10 8 43 -17 61 -25 18 -25 21 -13 61 11 38 15 42 46 42 18 0
33 4 33 9 0 5 3 17 6 26 6 14 -3 16 -82 13 -49 -2 -116 -5 -148 -8z m93 -50
c3 -3 2 -15 -1 -28 l-6 -23 -35 23 c-20 12 -31 25 -27 28 11 7 63 6 69 0z"/>
<path d="M1267 2995 c-70 -24 -130 -45 -133 -47 -8 -9 29 -104 50 -126 41 -43
161 -25 218 31 27 27 30 36 25 76 -2 25 -10 60 -18 77 l-14 31 -128 -42z m107
-51 c10 -40 -1 -61 -44 -78 -81 -32 -105 -28 -128 26 -11 27 -11 27 66 51 98
32 99 32 106 1z"/>
<path d="M6199 2971 c-44 -44 -41 -93 10 -141 39 -37 108 -64 146 -56 11 3 26
5 33 5 7 1 24 12 37 26 35 34 34 93 -2 129 -24 24 -28 25 -42 11 -14 -13 -14
-18 2 -44 23 -39 21 -55 -6 -70 -49 -26 -157 26 -157 75 0 19 8 28 34 39 25
11 34 21 33 35 -2 32 -52 26 -88 -9z"/>
<path d="M6122 2796 c-9 -21 -4 -25 89 -69 87 -40 99 -48 99 -71 0 -15 -8 -30
-20 -36 -17 -9 -38 -3 -116 31 -78 34 -98 39 -105 28 -5 -8 -9 -18 -9 -24 0
-13 191 -95 222 -95 40 0 77 39 85 90 6 43 -37 81 -148 130 l-87 38 -10 -22z"/>
<path d="M1449 2660 c-128 -36 -177 -145 -98 -219 60 -55 229 14 242 99 12 78
-64 142 -144 120z m79 -63 c20 -15 14 -62 -10 -85 -73 -67 -173 -47 -146 29
10 30 30 46 83 65 30 11 50 9 73 -9z"/>
<path d="M6040 2593 c-19 -8 -35 -28 -60 -75 -31 -57 -47 -42 162 -157 l58
-31 29 59 c31 61 33 87 6 127 -32 49 -150 96 -195 77z m116 -79 c50 -29 56
-40 38 -83 l-14 -33 -78 43 c-84 45 -93 63 -49 94 24 17 45 13 103 -21z"/>
<path d="M1585 2467 c-196 -122 -188 -117 -170 -137 17 -18 18 -18 54 4 20 12
42 26 48 30 9 5 20 -5 34 -28 21 -37 34 -42 58 -27 10 7 9 16 -10 49 -24 41
-24 41 -4 56 11 9 22 15 25 16 3 0 18 -20 33 -45 25 -38 31 -43 48 -35 10 6
19 14 19 17 0 10 -74 133 -80 132 -3 0 -27 -14 -55 -32z"/>
<path d="M5897 2390 l-47 -69 52 -39 c82 -60 179 -124 182 -120 2 1 24 34 50
73 44 64 46 70 30 82 -25 18 -26 18 -57 -32 -37 -57 -39 -59 -71 -34 l-26 21
32 45 c32 44 32 45 13 59 -22 16 -24 14 -72 -52 -17 -23 -19 -23 -41 -8 l-23
16 36 50 c34 47 35 51 18 64 -10 7 -20 13 -23 13 -3 0 -26 -31 -53 -69z"/>
<path d="M1729 2139 c-57 -44 -105 -83 -107 -87 -1 -4 3 -16 10 -25 12 -15 24
-9 125 69 99 77 110 89 100 105 -7 11 -15 19 -18 19 -4 0 -53 -36 -110 -81z"/>
<path d="M5719 2164 c-10 -13 -9 -24 9 -66 12 -29 20 -53 19 -54 -2 -2 -26 3
-54 10 -50 13 -53 13 -75 -9 -13 -13 -49 -48 -82 -78 l-59 -54 99 -102 c96
-99 100 -102 116 -84 17 18 15 21 -22 60 -35 35 -38 42 -25 53 12 10 27 9 76
-4 57 -17 62 -17 80 0 10 9 16 20 14 24 -3 4 -31 13 -64 21 -50 11 -60 16 -59
33 2 43 -3 56 -24 77 l-23 22 34 -7 c77 -14 108 -27 146 -61 46 -40 48 -40 66
-19 11 13 6 22 -37 62 -38 36 -57 64 -78 120 -15 39 -31 72 -36 72 -4 0 -13
-7 -21 -16z m-80 -218 c15 -18 1 -50 -29 -66 -15 -8 -23 -6 -40 12 l-21 23 26
23 c30 26 48 28 64 8z"/>
<path d="M1854 2148 c-11 -13 -57 -57 -103 -98 -79 -72 -81 -76 -63 -91 18
-16 23 -13 83 45 34 33 60 52 55 41 -4 -11 -19 -54 -34 -96 -24 -70 -25 -78
-10 -92 15 -15 22 -11 89 51 114 105 129 121 123 137 -9 21 -25 19 -55 -9 -14
-12 -41 -37 -61 -55 l-37 -32 25 63 c44 108 46 120 26 140 -17 18 -19 18 -38
-4z"/>
<path d="M1991 2001 c-8 -14 -6 -23 9 -36 11 -10 20 -21 20 -24 0 -4 -34 -42
-76 -84 -66 -68 -74 -80 -63 -95 8 -9 15 -19 16 -21 2 -3 39 33 83 79 74 78
80 83 97 68 10 -8 24 -17 31 -19 8 -3 -16 -40 -63 -98 l-75 -94 68 -53 c37
-29 69 -53 72 -54 3 0 11 9 17 19 11 18 7 24 -36 58 l-48 39 22 28 23 29 44
-36 c34 -28 47 -34 56 -25 20 20 14 35 -28 68 -39 31 -39 32 -23 54 l17 23 50
-39 c48 -38 49 -39 63 -18 8 12 13 23 12 24 -101 80 -136 109 -192 162 -37 35
-72 64 -77 64 -5 0 -14 -8 -19 -19z"/>
<path d="M5387 1837 c-18 -12 -16 -20 34 -147 28 -74 53 -137 55 -139 2 -2 12
4 23 13 16 15 17 21 7 47 -10 29 -9 32 24 59 34 28 35 28 58 9 18 -14 29 -16
43 -8 10 5 19 15 19 22 -1 11 -208 148 -235 155 -6 1 -19 -3 -28 -11z m97 -90
l33 -22 -23 -18 c-13 -10 -24 -16 -24 -14 0 3 -7 21 -15 41 -18 42 -15 44 29
13z"/>
<path d="M2225 1663 c-57 -80 -75 -111 -68 -122 16 -26 27 -21 62 26 31 42 35
45 47 29 11 -16 11 -86 -1 -123 -5 -15 36 -46 47 -35 4 4 10 34 12 67 3 55 5
58 30 60 49 2 98 82 72 116 -14 19 -106 89 -117 89 -4 0 -42 -48 -84 -107z
m131 14 c49 -43 8 -85 -45 -47 -30 20 -30 22 -15 46 20 30 26 30 60 1z"/>
<path d="M5194 1694 l-51 -38 80 -110 c44 -61 81 -113 83 -115 7 -8 97 66 108
89 33 66 -48 196 -129 207 -35 4 -47 0 -91 -33z m113 -29 c30 -21 63 -77 63
-108 0 -15 -9 -31 -25 -41 -24 -16 -25 -16 -75 50 -27 37 -50 71 -50 75 0 10
41 39 55 39 6 0 20 -7 32 -15z"/>
<path d="M2421 1575 c-28 -46 -59 -102 -71 -124 l-20 -40 21 -6 c24 -8 35 5
75 83 15 29 28 51 30 49 3 -2 -8 -39 -22 -82 -26 -76 -26 -79 -8 -92 17 -13
25 -8 87 59 l68 73 -45 -76 c-25 -42 -46 -81 -46 -87 0 -8 22 -22 35 -22 5 0
135 228 135 237 0 4 -13 16 -30 25 -29 16 -30 16 -49 -8 -34 -44 -92 -106 -95
-102 -2 1 7 35 20 73 29 90 29 92 -6 110 l-29 15 -50 -85z"/>
<path d="M5100 1640 c-12 -7 -12 -13 -4 -27 6 -10 26 -45 45 -77 l33 -60 -44
31 c-110 75 -125 82 -144 68 -20 -15 -17 -24 59 -150 23 -38 44 -78 48 -87 7
-20 15 -22 37 -8 13 8 9 20 -22 80 -21 38 -36 70 -33 70 3 0 36 -21 74 -46 50
-33 75 -44 90 -39 12 3 21 12 21 19 0 7 -21 49 -47 94 -27 44 -56 94 -65 111
-18 33 -25 36 -48 21z"/>
<path d="M2625 1424 c-30 -64 -55 -122 -55 -128 0 -6 34 -26 76 -45 63 -28 77
-32 85 -20 16 26 9 35 -46 58 -30 13 -55 25 -55 27 0 3 7 18 15 34 l15 29 52
-24 c49 -23 53 -23 60 -7 11 29 9 32 -40 55 -45 21 -48 24 -40 49 l9 27 56
-24 c30 -14 57 -25 59 -25 2 0 8 9 14 20 9 18 3 23 -60 55 -38 19 -74 35 -80
35 -6 0 -35 -52 -65 -116z"/>
<path d="M4873 1523 c-23 -5 -73 -49 -74 -67 0 -6 -2 -19 -4 -29 -10 -52 46
-157 96 -177 66 -28 140 17 144 87 3 46 -18 110 -48 142 -18 20 -80 54 -89 50
-2 -1 -13 -4 -25 -6z m76 -79 c47 -59 47 -134 1 -149 -63 -20 -131 106 -87
163 17 21 64 14 86 -14z"/>
<path d="M2801 1329 c-24 -71 -42 -131 -40 -132 27 -15 108 -34 131 -31 40 5
52 16 83 77 31 63 33 124 5 160 -17 22 -94 57 -124 57 -6 0 -31 -59 -55 -131z
m121 55 c28 -14 30 -19 25 -53 -6 -47 -34 -108 -52 -115 -8 -3 -28 0 -45 6
-23 8 -29 15 -25 27 4 9 16 41 26 71 28 80 28 80 34 80 3 0 20 -7 37 -16z"/>
<path d="M4662 1434 c-39 -16 -62 -51 -62 -94 0 -99 57 -180 128 -180 52 0 92
38 92 86 0 30 -3 34 -25 34 -20 0 -25 -5 -25 -24 0 -30 -22 -49 -52 -44 -46 6
-89 133 -56 166 16 16 48 15 67 -2 14 -13 19 -13 35 0 19 14 19 14 -3 38 -28
30 -61 37 -99 20z"/>
<path d="M3021 1291 c-46 -158 -47 -167 -21 -174 12 -3 23 0 25 6 23 68 73
252 70 257 -3 4 -13 10 -24 13 -16 4 -23 -10 -50 -102z"/>
<path d="M4459 1371 c-31 -10 -61 -21 -66 -24 -7 -4 2 -50 23 -123 19 -64 34
-122 34 -130 0 -18 9 -18 102 7 72 19 78 23 72 43 -9 30 -7 29 -69 11 -32 -9
-59 -14 -61 -12 -2 2 -7 18 -10 35 -6 30 -5 31 40 43 52 13 60 21 51 48 -5 18
-9 18 -52 5 -60 -18 -62 -18 -72 9 -9 23 1 35 37 42 62 12 72 17 68 39 -4 27
-27 29 -97 7z"/>
<path d="M3128 1251 c-94 -153 -92 -148 -63 -153 19 -4 29 1 42 22 17 24 21
26 61 18 40 -9 42 -11 42 -44 0 -23 5 -34 15 -35 36 -4 40 -3 39 6 -1 6 -5 61
-9 124 -4 63 -9 122 -10 130 -2 9 -4 19 -4 22 -1 4 -12 9 -25 11 -20 4 -31 -8
-88 -101z m76 -41 c-1 -8 -3 -18 -3 -21 -1 -3 -12 -4 -26 -1 l-25 4 22 40 c22
38 23 39 29 16 3 -12 5 -30 3 -38z"/>
<path d="M4273 1331 c-39 -10 -63 -38 -63 -75 0 -49 26 -75 90 -89 48 -11 55
-16 55 -36 0 -37 -40 -47 -69 -18 -17 17 -29 21 -45 16 -18 -7 -20 -11 -9 -34
39 -86 178 -54 178 41 0 49 -34 80 -98 89 -66 9 -75 30 -25 59 7 4 21 -2 32
-13 12 -12 27 -17 40 -14 26 7 26 14 1 45 -21 28 -52 37 -87 29z"/>
<path d="M3297 1323 c-19 -18 -5 -41 27 -47 33 -6 34 -8 26 -39 -5 -18 -11
-45 -13 -62 -3 -16 -8 -41 -11 -55 -17 -71 -16 -80 9 -80 28 0 28 1 50 123 18
98 20 102 63 90 23 -6 24 -8 17 -92 -3 -47 -8 -98 -11 -113 -4 -25 -1 -28 23
-29 16 -1 37 -3 48 -4 92 -11 105 -9 105 20 0 23 -3 25 -52 26 -29 1 -56 1
-60 0 -5 0 -8 17 -8 39 l0 40 60 -6 c59 -6 60 -5 60 20 0 22 -5 26 -32 28 -18
0 -37 2 -43 3 -5 2 -16 3 -22 4 -7 0 -13 14 -13 29 l0 29 65 -4 c60 -4 65 -3
65 16 0 27 -6 30 -96 36 -43 3 -114 12 -158 20 -90 17 -90 17 -99 8z"/>
<path d="M3879 1277 c-25 -20 -30 -46 -14 -82 13 -33 13 -36 -8 -50 -29 -20
-31 -93 -3 -124 22 -24 70 -28 111 -9 19 9 28 9 37 0 17 -17 23 -15 35 11 9
19 8 26 -8 35 -14 9 -17 17 -10 34 4 13 6 29 4 36 -6 16 -40 16 -45 0 -3 -8
-9 -4 -17 10 -10 18 -9 25 4 38 24 24 23 68 -2 97 -18 20 -61 22 -84 4z m56
-52 c0 -10 -5 -20 -11 -22 -13 -4 -27 24 -18 38 9 15 29 4 29 -16z m-2 -135
c17 -28 17 -29 -1 -39 -29 -16 -57 9 -48 42 8 35 27 34 49 -3z"/>
<path d="M1215 1983 c4 -32 8 -69 11 -83 2 -14 6 -56 10 -95 3 -38 7 -83 9
-98 3 -22 0 -27 -13 -23 -9 3 -51 13 -92 21 -41 9 -100 22 -130 29 -104 26
-110 27 -110 15 0 -7 17 -33 38 -58 99 -122 456 -536 464 -539 8 -4 11 45 9
147 l-1 54 48 -44 c255 -233 650 -484 947 -601 28 -11 64 -26 80 -33 104 -48
535 -172 660 -190 23 -3 52 -7 65 -10 13 -3 42 -7 65 -10 22 -3 51 -8 65 -10
84 -16 283 -28 480 -28 257 -1 367 8 640 49 66 10 255 53 330 74 41 12 95 27
120 34 73 21 247 85 359 133 296 126 585 303 828 508 53 44 108 90 122 101
l26 22 -3 -99 c-1 -55 2 -99 7 -99 5 0 96 102 202 228 107 125 198 232 204
238 95 106 116 141 85 137 -17 -2 -296 -62 -321 -69 -14 -4 -15 3 -8 53 5 32
11 83 14 113 13 132 17 165 21 172 3 4 0 10 -6 13 -10 6 -78 -62 -308 -305
l-81 -85 -35 34 -35 34 -73 -68 c-313 -291 -694 -514 -1108 -648 -52 -17 -97
-31 -100 -32 -3 0 -56 -13 -118 -29 -122 -29 -247 -53 -327 -62 -27 -3 -59 -7
-70 -9 -114 -23 -606 -24 -720 -1 -11 2 -47 7 -80 11 -75 9 -267 47 -365 73
-289 77 -576 201 -834 360 -154 96 -393 284 -475 375 -31 35 -45 34 -73 -3
-12 -16 -25 -30 -29 -30 -9 0 -20 11 -231 233 -83 86 -155 157 -160 157 -5 0
-6 -25 -3 -57z m5200 -35 c-3 -29 -7 -69 -10 -88 -2 -19 -7 -57 -10 -85 -3
-27 -7 -65 -10 -83 -4 -33 -3 -33 28 -28 18 2 66 12 107 21 135 30 195 43 197
41 1 -1 -48 -60 -108 -131 -61 -72 -159 -186 -217 -255 -58 -69 -111 -132
-119 -140 -11 -12 -12 0 -9 75 2 50 7 99 10 110 4 16 -17 44 -99 130 -58 60
-104 113 -103 117 2 3 60 67 129 140 70 73 146 154 170 180 24 26 45 47 47 47
2 1 0 -23 -3 -51z m-5030 -105 c77 -80 156 -161 175 -179 l34 -33 -86 -88
c-116 -118 -146 -155 -130 -161 8 -2 12 -32 12 -99 l0 -96 -22 29 c-12 16 -25
31 -28 34 -3 3 -28 32 -55 65 -28 33 -52 62 -55 65 -22 20 -290 343 -288 346
2 2 33 -4 68 -12 36 -9 76 -18 90 -20 14 -3 53 -12 88 -20 88 -20 85 -22 78
41 -3 30 -9 81 -12 113 -3 31 -9 81 -13 110 -5 28 -5 52 -2 52 4 0 70 -66 146
-147z m364 -225 c441 -418 1072 -703 1706 -773 230 -25 545 -25 745 0 238 29
420 71 643 146 179 60 213 74 397 166 241 120 433 251 639 434 l104 92 133
-139 c73 -76 133 -143 134 -149 0 -5 -21 -29 -47 -53 -437 -398 -983 -679
-1578 -811 -92 -20 -106 -23 -185 -36 -25 -4 -53 -9 -64 -11 -10 -2 -44 -6
-75 -9 -31 -4 -67 -8 -81 -11 -140 -23 -710 -22 -800 1 -8 3 -40 7 -70 10
-160 17 -474 87 -645 144 -115 38 -210 73 -263 97 -29 13 -55 24 -58 24 -15 0
-272 131 -367 187 -211 126 -426 284 -560 413 l-59 56 76 79 c42 44 102 108
133 142 32 34 62 62 67 63 5 0 39 -28 75 -62z"/>
<path d="M6297 1629 c-12 -30 -19 -36 -41 -34 -31 4 -34 -10 -5 -26 18 -9 20
-17 14 -47 l-7 -35 27 17 c24 16 28 16 50 2 33 -22 36 -20 24 14 -10 26 -8 32
18 54 l28 25 -25 -4 c-32 -6 -45 3 -57 40 l-10 30 -16 -36z"/>
<path d="M1325 1633 c-8 -33 -11 -35 -55 -35 l-24 -1 27 -23 c23 -20 26 -27
17 -49 -15 -40 -12 -48 12 -25 26 24 36 25 60 3 23 -21 31 -13 19 20 -9 22 -7
29 14 46 32 24 31 27 -2 26 -23 0 -31 6 -45 35 l-16 35 -7 -32z"/>
<path d="M1848 1403 c-16 -19 -128 -191 -128 -198 0 -2 36 -29 81 -60 61 -43
90 -57 116 -57 59 0 119 57 129 124 11 65 0 83 -91 148 -47 33 -87 60 -89 60
-1 0 -10 -8 -18 -17z m92 -122 l35 -29 -20 -39 c-24 -46 -51 -52 -98 -22 l-34
23 31 48 c17 26 36 48 41 48 6 0 26 -13 45 -29z"/>
<path d="M5770 1391 l-24 -19 32 -52 c18 -29 31 -54 30 -56 -2 -2 -37 6 -78
16 -92 24 -89 24 -123 -4 l-28 -23 68 -106 c37 -58 72 -106 76 -107 5 0 22 9
38 21 l29 20 -35 55 c-19 30 -32 54 -30 54 3 0 41 -9 85 -21 l80 -20 34 26 33
25 -69 105 c-38 58 -75 105 -81 105 -7 0 -23 -9 -37 -19z"/>
<path d="M2082 1198 c-16 -29 -43 -78 -61 -109 -32 -59 -38 -79 -21 -79 5 0
50 -25 100 -55 50 -30 95 -55 100 -55 10 0 30 32 30 47 0 5 -29 26 -65 47 -72
42 -83 53 -61 62 9 3 38 -8 66 -25 28 -17 54 -31 58 -31 14 0 38 53 27 57 -5
2 -33 18 -62 36 -39 24 -50 36 -43 46 6 11 12 12 22 4 7 -5 39 -24 70 -42 l57
-32 15 29 15 29 -104 62 c-57 33 -106 61 -109 61 -2 0 -18 -24 -34 -52z"/>
<path d="M5430 1173 c-25 -14 -46 -27 -48 -29 -2 -1 1 -28 7 -60 12 -66 17
-97 26 -166 4 -27 9 -48 11 -48 2 0 19 8 39 17 25 12 34 22 30 33 -8 24 84 81
107 66 12 -7 26 -5 53 10 l37 19 -99 92 c-54 51 -102 92 -108 93 -5 0 -30 -12
-55 -27z m94 -102 l27 -28 -23 -15 c-13 -8 -28 -18 -35 -22 -18 -10 -39 74
-21 85 19 13 22 12 52 -20z"/>
<path d="M2341 1091 c-18 -32 -91 -204 -91 -212 0 -12 59 -41 69 -35 5 3 14
20 21 38 8 18 15 34 16 36 3 4 64 -26 81 -40 9 -7 8 -18 -3 -45 -8 -19 -14
-36 -12 -38 9 -7 70 -36 72 -33 6 10 25 56 30 71 3 10 1 27 -4 37 -8 15 -6 20
10 25 36 11 54 65 36 111 -5 13 -186 104 -207 104 -5 0 -13 -8 -18 -19z m139
-126 c0 -23 -17 -26 -54 -8 -33 15 -46 40 -30 56 10 10 84 -32 84 -48z"/>
<path d="M5253 1082 c-31 -17 -31 -17 -17 -51 8 -18 14 -37 14 -41 0 -4 -21
-17 -47 -28 l-47 -20 -18 39 c-19 44 -21 45 -65 21 l-32 -17 45 -110 c25 -60
49 -114 54 -119 9 -9 66 10 76 25 2 5 -2 22 -11 38 -8 17 -15 36 -15 43 0 12
87 55 94 47 2 -2 11 -21 19 -41 17 -40 30 -45 72 -26 27 12 27 20 -2 88 -8 19
-27 64 -41 99 -15 35 -31 66 -37 67 -5 2 -24 -5 -42 -14z"/>
<path d="M4964 964 c-31 -11 -50 -28 -80 -71 l-39 -57 -9 38 c-9 35 -12 37
-40 32 -56 -12 -57 -17 -16 -144 21 -64 44 -118 50 -120 19 -7 71 20 66 34 -3
7 -8 29 -12 48 -8 45 0 45 72 5 51 -28 58 -29 92 -18 20 6 41 15 45 19 5 4
-29 27 -75 50 -46 23 -84 44 -86 45 -2 2 8 22 23 45 43 69 65 110 57 109 -4 0
-25 -7 -48 -15z"/>
<path d="M2638 903 c-29 -37 -68 -86 -86 -109 l-31 -41 38 -15 c34 -14 41 -14
53 -1 13 12 21 11 64 -5 32 -13 50 -26 52 -38 4 -24 71 -49 78 -29 3 7 4 70 2
140 l-3 128 -35 12 c-82 28 -74 31 -132 -42z m98 -58 c2 -11 1 -32 -2 -47 -5
-25 -7 -26 -32 -16 -43 19 -46 25 -22 58 24 34 51 36 56 5z"/>
<path d="M3110 847 c0 -2 -11 -60 -25 -127 -26 -125 -24 -139 12 -140 6 0 18
-3 26 -6 18 -7 23 6 52 149 l21 108 -25 5 c-14 3 -34 8 -43 11 -10 2 -18 2
-18 0z"/>
<path d="M3282 807 c-32 -6 -46 -15 -57 -38 -30 -57 -2 -98 86 -127 35 -12 55
-25 58 -37 2 -13 -1 -16 -14 -11 -9 3 -25 6 -35 6 -10 0 -26 7 -35 16 -9 9
-33 17 -53 18 -32 1 -37 -2 -34 -19 5 -27 39 -62 71 -73 14 -5 51 -10 81 -11
47 -2 60 2 83 23 32 29 36 73 10 105 -10 12 -45 31 -77 44 -33 12 -61 28 -64
35 -5 17 48 15 67 -3 24 -21 101 -32 101 -14 0 19 -27 57 -49 69 -35 18 -96
26 -139 17z"/>
<path d="M4308 802 c-10 -2 -18 -5 -18 -8 0 -5 27 -176 34 -214 2 -14 5 -29 5
-33 1 -9 33 -6 159 15 64 11 72 14 72 34 0 48 -5 51 -78 38 -37 -6 -70 -9 -74
-7 -4 2 -10 29 -14 61 -5 31 -9 60 -10 65 -1 4 -2 18 -3 32 -1 26 -16 29 -73
17z"/>
<path d="M4229 796 c-3 -3 -20 -7 -38 -8 l-33 -2 6 -61 c7 -70 17 -153 22
-175 1 -8 3 -19 3 -24 1 -10 74 2 81 14 6 10 -18 215 -29 243 -3 10 -9 16 -12
13z"/>
<path d="M3502 763 c0 -10 -3 -69 -7 -130 -7 -110 -7 -113 14 -114 12 -1 29
-2 39 -3 12 -1 17 7 18 29 1 17 3 46 4 65 l2 35 9 -30 c4 -16 11 -45 14 -64 3
-19 7 -36 8 -37 1 -1 23 -4 49 -6 l47 -5 17 51 c24 73 30 74 26 6 l-4 -60 41
0 41 0 1 48 c0 26 3 84 6 130 4 75 3 82 -14 83 -10 0 -33 2 -51 4 -31 3 -33 1
-64 -66 -17 -38 -34 -69 -38 -69 -4 0 -17 34 -29 75 l-22 75 -54 0 c-45 0 -54
-3 -53 -17z"/>
<path d="M3975 770 l-49 -5 -28 -95 c-15 -52 -30 -104 -32 -115 -2 -11 -7 -28
-11 -37 -6 -15 -1 -18 35 -18 32 0 43 4 46 18 7 24 118 31 127 8 7 -17 72 -23
81 -8 8 13 -89 244 -105 251 -8 4 -36 4 -64 1z m51 -131 c12 -36 12 -37 -14
-41 -53 -7 -60 -1 -48 43 14 52 43 51 62 -2z"/>
</g>
</svg>
